/* XPM */
static char *_2034_2fc3bfddd272dfe276e8f70bdac75b17cca8dfd02cc325c696fd8a09ac403c5b[] = {
/* columns rows colors chars-per-pixel */
"64 64 26 1 ",
"  c #808080",
". c #5D5D5D",
"X c #9F9F9F",
"o c #979797",
"O c gray47",
"+ c gray52",
"@ c #747474",
"# c #686868",
"$ c gray43",
"% c #9B9B9B",
"& c #939393",
"* c #A4A4A4",
"= c #AAAAAA",
"- c gray54",
"; c gray39",
": c gray34",
"> c #AFAFAF",
", c gray56",
"< c gray49",
"1 c #B6B6B6",
"2 c gray31",
"3 c #BCBCBC",
"4 c gray76",
"5 c #444444",
"6 c #323232",
"7 c gray80",
/* pixels */
"6622.;$@OOO   $56; --,+ O<+ O@@55$@@#..:.;;;;..56;<+-   OO+--+O:",
"52.#@ ,o*=>>1>=@2&==>>>113443>o.#-,,- @$@O <O@$2#&==*=*%&oX=>>oO",
"5:;$@ ,%=134771<;%=**=34777777*;$&&,- @@OOOO@OO:$X>=**Xo&o%*>=oO",
"2#$$O+&*>34444=$#&**%*13133477o.@%o,,-<OO<<<< O:#%=Xoo%o,-&%**%<",
":@O@O-o*>13344*;#&%XoX>>=>1147,.@XX%%&+< ++++<@:#%*oo%%o,-,oX*%@",
".<++ -oX=11343%#;,o%oo*===1144&;<*>=*%, < +-+<O:#&X%%%o&-  -,o,#",
":<,--,&%*>1>>=o$:+,&,-+,&o%*Xo :$%==*%,+< +   O2;-,+,&- O@@@< <:",
"5;$##$$@O<---+O.6:;;.:2::2;$#.266.$OO@$####;;;.55;.:.:252:..:.:5",
"222222562...;;.::::...:65;O-- O$#@OO@#.2:###$#.:::....265:::2222",
"$#$$@$#5#&&-+ <<OO<+-+<:O*1>=====**=**&.@X***X,-+OO  +<2:@$@OO@$",
"@<  OO<:$*=%,++ +++-,,-;<>311343>11=***;O131>=*o-<O<   2.<OOOOO$",
"<+-+< +.#*1>X,-+-,,,&o&;<11>1333>>>*o%%;O>11>=*%, OO< <2.+ <O<<O",
"+++,&,&#@133>%&-,&ooo%%#<11>111>>=*%ooo#$1311>=X&+<OO<O2;,-+ -,,",
"&,-&%%o#+3431>X,-oXXX*X$O>1>1>==*X%%o&,#;*311>=X&+OO@@@:#oo&&ooo",
"%X%%XX&;+11>*Xo+ -X%X*o#;%>>=*X%o&,-,,+..o>>>=*X&+<O@@$2.o*XXX%o",
"$@OOO@$2:O  @#;;..$OO@.66:$$@@$;....;;266:@ OO@#;;.::2566.@@@OO@",
"5.#$@@@OO$#$##:55.;#$$;:.;;;:2566# ++ O@@@$$$$;52;.....::::.:256",
"Oo=======*%o&,+:.-oXX%%&&&,- @.5$1441>11>>Xo&,<:;<<<O<<@$$$$##;5",
"OX433331>>=X%o-:$*===**X%o&,+<$2+47743311>*o&,-:;-,-++ @@@@@@$$2",
"O*444331=*X%o&-:O>1>>=*XXXX&,+O:<14431>*=*%%o&,.$oooo,+  ++++ O:",
"O*44431>=Xooo& :<1431>***=*&,+O2O13431**=*oo&,+.$oo%%o,,,&,,,-+.",
"@X43333>=*o,,-@2$174441==>X&,+@2O17441>>>=%&,+ .$o%***XXX%%o&&-;",
"#o111>>*%%o+  $5O>44331=**X,+ $2@*1>=>>X%*%,-+O2;&%X*****XX%%%-.",
"5$ <<<O@$$#;.:26. +--++<$@$#;..55#@@O<O##$$$#.266;$$$@O@@O@@@@.6",
":;#$$$#:5.;;;.::.;.....562.$O< <$@<+ <$562::.;#;;#$$$@#552:::.:2",
"<+,oo&,#.++++<O< +---, ::<-&X=>>==1331o#2<+<<+-oX**XX*o#2#O< <@@",
"+,o%X%&#.+--- OO -&%%o+..-,&%=>>=>1477>@.+,+ +,o*>>==>*@2O --+<<",
",oX***&#;,ooo,+ -,&%XX,.;-,ooX=>*=1134=$;&o,-,oX=>>133=@:<-,,-++",
"&X*>>>o#@%=*%&&,&&o%*=o..,&o%X**=>1>11*#$%X%ooX*=>1433>O.+o,,,--",
"X=>133X$@*3>=*Xo&o%*>>o;.+,&&%**==>=>1*$<*>=*X*=>147341+;-X%X*%o",
"%*=>>>o$$*1>>=X&---&**o#.<+-,&%X*=**>1X$O*=X&,,o%=13343<;&*X*=*X",
"@@O<<<O22@@@ <$.;;;#@<<25.;;#$#$$$@O  @52  O#;###@ -+-+22$@@O<<<",
":#;.....#$#@$@$5#OOO@@#:2::::::65;#$@$;::......562..::2:...:.:56",
"$  <<+< &&%%&&,; *=*X%,+<<O@@@#2O>1>=*&,-O@@@<<:.+ O<O@@OO@$$#.5",
"#++ ++--,&oo&,-;<341>*X&++ <O<#2+3743=%,+ <  < ;#o&+-+<<<@$###.5",
";O@@OO< ++---+<.O1431=%&--+  <$2+4741=X&-<<    ;$oo,,--++<$##;:5",
".$$$$$$OO   <<O:@>331Xoo&,-++ O:+4773>*o,+<<   .$%X%%o&&,+<@#.:5",
":$#####$@OO@@$$:;>311=%%%o&,-+@2+37741=X&,-   <2@*>=***Xo,+<$;:5",
":##......;###;#22,****Xooo&,- $2+>341=X&---<@@#2@%=*==*X,&-<$#.5",
"52255555552222266:#$@O@$##$##.56#---+<@$#;#;:256;<O$@$$$;#;.:256",
"#$$$##$:.<<OOOO@$$$##;.55#<@####O+--<$.52#;;##$;#$;###.55...;$$$",
"XXXoo&+#<=11===*o,&&,+O:O=1>*X**=>1>>>*O#+-+-,&&,-----+.: -+,%XX",
"X*****,#O13311=*o,,&- O: 141>*X*=>1>14>@#,&++---+ +++  .:+-,&%%%",
"*>==*X,#O>1131>*&--,- @:O33>*&,,&oo%*>%;$o& <<O<OO<<OO<.:++,&oX*",
"=>==**&#O=1331=X&-+++<@2$>>*%&-+--,&X*,.#&, <OO@O<<<@$@:2 +,&oX*",
"=>==**o$<=111>*Xo,+<O@$2#%*X&----,,&X*o;#&,+  <<O<  O$#22<-,oo%*",
"*===X%&$<==%o%%o&- O@$;5.<--+ +-+++,&o,.;--+---+    O@#25@,,&o%*",
"@OOO@$;65$@$$##;..:...5662;..;.22:.;;;.55.;;;#.2:;;;;.266:#;#$#$",
".$@$$##;;..;;;:66:@<<+    +-+ ;66;$$$@$$###;.:566622::255:;##;26",
"$&X%,&o&,+++ <<::o>111>>311341X#.-&&o%o,--+ O@@25;#$@@@@<+-,&o,.",
"#,%o&,----+ <O<:;X*>1>=>444774=@#,o&,oo,-+  <OO:2$@@OOO -,,&o%&;",
"#---+ < ++ <O@@:.&o%*X%*133331*##,&,,,,-+<< <OO:2@O<<  +,&&o%X%#",
"#   O@@O<<O@@$$::-,&,,&X=>===*%##&o&,-- OOO  OO:2O< +---&o%%X**@",
"; <@$#$$OO@$$##2.-,,--,o%%%%%*o#$XXo&-+<@@O< OO:2< +-,&&&%X*X**O",
":O<@###$@@$$###52 -,--,o%%&,oX&;@X*o,,- O@O  <@22O--,&&&&oX%oX%$",
"62..:2::2:::::265.####$$;##;#$:6.@O$##..:..;;.:55.#$$$;:.;##$O$5",
":#<+-+<262;#$$@@$@O@@<<262;###$##$$$@@;55;#$OOO< ++<@+;65#$$$$$#",
"X=11341@:-&&o%XoX*>133*;2<   +,&o%XXX=*$.+,%**=>>1111>%;;,,&o&oX",
"=133343@.-&o%*%%*134471#:O<<OO+,&o%**>=$;++,X*==>13431=@;--&%%oX",
"%=>113>#.+&%X*XX*13447>;:OOO@O ,&oo%X=X#. +-oX***=11>>X@.  ,%X%%",
"&o**=1*#.+&X*==>134447>#:@OO< +,&&&o%*%#:++,&%XX**=>>1>@. +,&o%%",
",,ooX=*$.-&X=>13447777*;2$@O ++-,,,&&oo$;+-,&o%o%X**=33@:<--,&o%",
",,%o&,,#.-o%===1131>X*&:2#@O< +-,-++-,,.2 +--,,-,,&o*=*O2@ +-,&&",
":$@$$##:5$O<+ < +- $$$$55:.;;#####;;;$.66:$#;;#####$O<<;62.;###:"
};
