/* XPM */
static char *fc4da729503944b0e098377dfab64266ZmyNVgZJKm5PusfA[] = {
/* columns rows colors chars-per-pixel */
"64 64 233 2 ",
"   c #1C0D15",
".  c #1E0F1C",
"X  c #160D14",
"o  c #1E111C",
"O  c #1A1618",
"+  c #210F1C",
"@  c #2C0E19",
"#  c #260D14",
"$  c #241215",
"%  c #22111C",
"&  c #2B131C",
"*  c #2A1B1E",
"=  c #291818",
"-  c #34131E",
";  c #38181B",
":  c #382C14",
">  c #32211D",
",  c #382416",
"<  c #2F2012",
"1  c #231321",
"2  c #2A1622",
"3  c #331521",
"4  c #3B1A24",
"5  c #3A1924",
"6  c #202020",
"7  c #2C2C2C",
"8  c #392624",
"9  c #373737",
"0  c #421A1A",
"q  c #403018",
"w  c #483818",
"e  c #4A361A",
"r  c #543C1C",
"t  c #5D381B",
"y  c #4B251C",
"u  c #431B24",
"i  c #4B1C24",
"p  c #4B1F29",
"a  c #411A26",
"s  c #531C24",
"d  c #5B1E26",
"f  c #611F27",
"g  c #4A2329",
"h  c #552729",
"j  c #493728",
"k  c #4A3A35",
"l  c #453931",
"z  c #542E2A",
"x  c #66332D",
"c  c #78382E",
"v  c #6D3C38",
"b  c #773738",
"n  c #5C4020",
"m  c #524337",
"M  c #54492B",
"N  c #6C4824",
"B  c #7A443C",
"V  c #6E4F32",
"C  c #53441B",
"Z  c #762E41",
"A  c #773140",
"S  c #7E3542",
"D  c #733E40",
"F  c gray25",
"G  c #4A4A4A",
"H  c gray33",
"J  c gray36",
"K  c #5F5343",
"L  c #665548",
"P  c #69594A",
"I  c #724D4A",
"U  c #7A6D5A",
"Y  c #646464",
"T  c gray44",
"R  c #7C7C7C",
"E  c #843737",
"W  c #82433A",
"Q  c #97513B",
"!  c #89782A",
"~  c #833342",
"^  c #8C3D46",
"/  c #893D48",
"(  c #923E48",
")  c #8C424B",
"_  c #8E4046",
"`  c #90454E",
"'  c #914845",
"]  c #8E5648",
"[  c #8E5547",
"{  c #9A5446",
"}  c #94554B",
"|  c #99554B",
" . c #92584E",
".. c #975444",
"X. c #935B57",
"o. c #8A5955",
"O. c #AD5A47",
"+. c #9A685E",
"@. c #87695A",
"#. c #B4614E",
"$. c #AB725F",
"%. c #B36953",
"&. c #9D7E76",
"*. c #957365",
"=. c #AB7160",
"-. c #A37A6B",
";. c #B87666",
":. c #BE7B65",
">. c #BD7C69",
",. c #B77769",
"<. c #A17B76",
"1. c #C66B56",
"2. c #CD7053",
"3. c #DA7458",
"4. c #CE6951",
"5. c #EB7C5D",
"6. c #E47759",
"7. c #FD7F5D",
"8. c #F47C59",
"9. c #C07B65",
"0. c #C07A69",
"q. c #F17E62",
"w. c #8E8024",
"e. c #CBB83D",
"r. c #FBE338",
"t. c #FBDA3A",
"y. c #9C8858",
"u. c #AA9541",
"i. c #9D8472",
"p. c #9F8871",
"a. c #98836C",
"s. c #BD8267",
"d. c #A18676",
"f. c #BB8973",
"g. c #AF9679",
"h. c #F39B49",
"j. c #FB8457",
"k. c #FA8A55",
"l. c #FC825B",
"z. c #F78858",
"x. c #F89554",
"c. c #F38657",
"v. c #D5BC51",
"b. c #F8A54B",
"n. c #F9B848",
"m. c #F9A752",
"M. c #C2846C",
"N. c #C38A6E",
"B. c #C38260",
"V. c #D98866",
"C. c #C48C72",
"Z. c #CC8E73",
"A. c #CC9B7D",
"S. c #CA9377",
"D. c #D59A7A",
"F. c #E78D65",
"G. c #E69165",
"H. c #E89166",
"J. c #E49469",
"K. c #E4996D",
"L. c #E89268",
"P. c #E49C73",
"I. c #E19F7B",
"U. c #F38260",
"Y. c #D1A17F",
"T. c #E5A175",
"R. c #E4A57C",
"E. c #E9A77C",
"W. c #EEB67D",
"Q. c #FAC846",
"!. c #F3CF44",
"~. c #F1C97A",
"^. c #F2D572",
"/. c #EFCA75",
"(. c gray55",
"). c #989898",
"_. c #B79C87",
"`. c #BEA988",
"'. c #BEA994",
"]. c #BEA695",
"[. c gray66",
"{. c #CA9C83",
"}. c #CBA789",
"|. c #D4A384",
" X c #D7AB8A",
".X c #CCB18C",
"XX c #D1B28E",
"oX c #C5AA94",
"OX c #C7AB95",
"+X c #DEB695",
"@X c #D7B896",
"#X c #D1B299",
"$X c #E6AC83",
"%X c #E5A984",
"&X c #E7B286",
"*X c #E6B489",
"=X c #EAB58C",
"-X c #E8B88C",
";X c #E1B595",
":X c #E3BB94",
">X c #EABD93",
",X c #E3BD9A",
"<X c #EDBF98",
"1X c #F0A980",
"2X c #CFB9A2",
"3X c #D2B9A2",
"4X c #D4B7A1",
"5X c #ECBDA3",
"6X c #DBC19D",
"7X c #EAC195",
"8X c #E5C39C",
"9X c #EAC59C",
"0X c #E6C99E",
"qX c #E8C99E",
"wX c #E6C196",
"eX c #E4C08F",
"rX c #DFC4A3",
"tX c #E4C6A2",
"yX c #EBC5A2",
"uX c #E6C9A1",
"iX c #E9CAA2",
"pX c #ECCFA9",
"aX c #E7CCAB",
"sX c #F3CCAD",
"dX c #EED1AA",
"fX c #EDD0A6",
"gX c #F1D4AD",
"hX c #F8DAAF",
"jX c #F4D6AA",
"kX c #F2D6B0",
"lX c #F6DBB4",
"zX c #F8DAB4",
"xX c #FAD2B5",
/* pixels */
"R R R w r n n N N t n n n n n n n n n n n n r q w n n n n r r w H Y R R T T T T 7 7 7 7 7 7 7 G Y T H Y H H G G G H H Y J Y T R ",
"R T T H w r n V n n n n n n n r n n n n n n r q w n n n r w w H Y R R T R T R R G 7 7 7 7 7 G Y T H Y H G G H H J Y Y Y Y Y Y T ",
"T T T Y H w r N n n n n n n n n r r n n n n r q w n r r w G H Y Y G r n n n G Y Y G 7 7 7 F Y T H Y H G H J Y Y Y Y Y Y Y Y Y Y ",
"H T R T Y H w N n n n n n n n n r r n n n n w q w r w w H Y R G n n w w q w : w Y Y G G G Y T H Y Y Y Y Y Y J H H G G G G G G G ",
"G H T T R Y w N n n n n n n n n n n n n n n w : w w H Y R R G t w w w w q w q w G R Y Y Y T H Y J J Y J J J J J J J J Y Y J J J ",
"G G H T T T w r n n n n n r n n n n n n r q : j H Y R R Y n n w w w w w q w q q : Y (.[.T H Y H G G G G G G H G G G G G G G G G ",
"G G G H T R H w r n n n n n n n n n n n : q F H Y R R G n w w w w w w w q q w : : Y [.R H Y H G G G G G G G G G G G G H G H G G ",
"G H G G H T R H w r n n n n n n n C j q w H Y Y R Y n n w w w w w w w w q q w : : Y ).R Y H G G G G G H G G G G G G G G G G G G ",
"G H G G G H R Y H w r n n n n r t y : H Y Y &.R G n r w w w w j w q w w : : w : : Y ).Y H G G G G G G G G G G G G G G G G G G G ",
"G A A Z Z A A Z A A A A A A A A Z Z A A A A Z b A A A Z A A A A b Z A A A Z A A A A A A A A A A A A A b A Z S A A S A A A A G H ",
"G S ~ ~ ~ ~ ~ ~ ~ ~ ~ ~ ~ ~ ~ ~ ~ ~ ~ ~ ~ ~ ~ ~ ~ ~ E ~ ~ ~ ~ ~ ~ ~ ~ ~ ~ ~ ~ ~ ~ ~ ~ ~ ~ ~ ~ ~ ~ ~ ~ ~ ~ ~ ~ ~ ~ ~ ~ ~ S S G G ",
"G S ~ ~ ~ ~ ~ ~ ~ ~ E ~ ~ ~ ~ ~ E ~ ~ ~ ~ ~ ~ ~ ~ ~ ~ ~ ~ ~ ~ ~ E ~ ~ ~ ~ ~ S E ~ ~ ~ ~ ~ ~ ~ ~ ~ ~ ~ ~ ~ ~ ~ ~ ~ ~ ~ ~ ~ S G G ",
"G ~ ~ ~ ~ S ~ ~ ~ ~ ~ ~ ~ ~ ~ ~ ~ ~ ~ ~ ~ ~ ~ ~ S ~ ~ ~ ~ ~ ~ ~ ~ ~ ~ ~ ~ / ~ ~ ~ ~ ~ ~ ~ ~ E ~ ~ ~ ~ ~ E ~ ~ ~ ~ ~ ~ Z ~ D G G ",
"G Z Z Z / / / / ) ) ( ` ( ^ / / / / / ^ / / / ( ) ) ) ) ( ` ` ` ` ` ` / / ( ` ( _ _ _ ^ _ _ ^ ^ ( ( _ ) ^ ( ( ( / ( / b D A G G ",
"G G G 9 <.5X5XyXyX5X Xf.:.;.9.9.9.;.9.;.:.:.>.{.5X5X5XyXsXxXxXxXxXxXxXsXaXaXyX%XJ.H.G.G.H.G.G.G.G.G.H.H.F.H.J.%X5X5X].G F G G H ",
"G G 9 Y &.yXaXyXtX{.:.:.:.:.:.9.9.9.9.:.:.:.:.>.A.tXiXsXzXzXzXlXlXlXlXlXaXtX,XK.L.H.G.G.H.G.G.G.G.G.G.G.G.H.H.J.&XyXoXG G G G G ",
"G 9 Y R &.yXiXtXA.$.s.:.:.s.:.:.:.:.9.:.9.:.9.:.0. XyXkXzXzXzXlXlXlXlXlXkXuXwXJ.G.G.G.G.G.G.G.G.G.G.G.G.G.G.G.G.K.9XoXG G G G 9 ",
"9 Y Y G &.iXuX,Xs.:.s.:.:.:.:.:.:.:.:.9.:.9.:.9.>.M.tXyXxXzXzXlXlXlXlXlXlXpXqXP.G.G.G.G.G.G.G.G.G.G.G.G.H.H.G.G.J.7XoXG G G 9 F ",
"Y Y G r &.uXuX X:.:.:.s.:.:.:.:.:.s.s.:.:.9.9.0.:.s.,XuXiXpXfXgXlXlXlXlXzXiXqX7XT.G.G.G.J.G.G.G.H.G.G.G.G.H.H.H.J.eXoXG F 9 F F ",
"Y G z n i.uXiX X:.:.:.:.:.:.:.:.:.1.:.:.:.0.9.9.:.{.tXuX9X9XqXqX0XuXfXfXiX0X0XqX0XeXW.R.T.K.J.J.H.G.G.H.G.G.H.L.T.7XoX9 9 9 F Y ",
"G r n w &.uXuX8XN.:.:.s.:.:.:.:.:.:.:.:.9.:.:.M.|.uXyX=XT.K.R.>X0X0X0X0X0XiX0XiX0XwX9XqXqXwX7X>X*XE.E.P.J.J.T.E.7X0XOX9 9 H Y Y ",
"r n w w &.0X0XuXwXY.C.s.C.C.C.S.S.A.Y.|. X X:X9XuXwX%XG.F.F.H.J.:X0XiXiX0X+XY.N.s.s.s.N.|.,X0X0X0XiXqXqXqXqXqXqXiXdX2X9 H Y R G ",
"n w w w a.0X8XwX:X:X<X9X0XuXiXiXiXuXiXgXgXdXuXuX0XE.G.H.H.H.F.F.K.0X0XtX Xs.9.9.9.9.9.9.:.N.,XuX0XuXuXuXqXiXdXkXlXlX2XH Y R F C ",
"w w w r -.R.J.G.H.H.H.P.&X9XuXiXiXjXkXzXzXzXgXuX>XJ.F.F.G.G.J.G.G.eXtX8X:.:.:.9.;.9.0.:.9.:.M.wXuXuXuXqXiXlXlXzXzXlX2XY R G r n ",
"w w w w =.G.G.G.G.G.G.G.H.P.7X0XdXlXlXlXlXlXlXdXeXL.H.G.J.G.G.H.J.:X0X+X;.s.:.:.9.0.9.0.9.9.:.A.uXuXuXdXlXlXzXzXzXlX2XR Y r n w ",
"w w w w =.G.G.G.J.G.G.G.F.J.T.9XdXlXlXlXlXlXzXdX7XK.J.H.F.F.V.K.R.0XuX9Xs.s.:.:.9.0.:.;.9.9.:.M.rXuXfXlXlXzXzXzXzXzX2XY G r w w ",
"w r r w $.G.H.H.F.J.G.F.H.H.L.$X0XdXdXdXdXdXpXuXuX>X$X$X*X=X>X7X9XtX0X0X,X|.C.M.>.;.:.:.9.:.9.:.@X0XjXlXlXlXzXzXzXlX3XG r w w w ",
"w r r w $.H.J.J.H.H.F.J.L.H.H.J.9X0X0X0XtX0X@X.XXXXXXX.X.X.X.X.X.X.X.X.X.XXX#X+X;X XS.M.9.9.:.C.8X0XjXlXlXlXzXzXzXzX3XC w w w w ",
"w w w r $.J.J.H.H.H.H.H.H.H.L.J.eX0X6Xg.L 8   . o o O O . . O O . o o o o O O X 8 P _.tXtX@X8XuXiXiXiXlXlXlXlXzXlXlX6Xw w w w w ",
"w w w w i.*X$XT.K.H.H.H.G.H.J.P.0Xg.k % o X & + o o o o O o 1 % o o o o o % o . % $ * G `.uXuXuX0XtX0XdXlXlXlXzXlXlX2Xw w r r r ",
"w w w w &.uXtX0X9X7X=XR.T.T.R.,X@.* % . . o 5 @ o o o o o $ M 2 o o 1 % o % % # u % o O O a.rXuXiX0XuX0XiXfXfXfXaXaXoXw w r r r ",
"w w w w i.wX8X8X0X0XqXiXqX9XyXP O % + + + o + s &   o % + % M % + 4 % o . + + + i $ o o o * *.uX0XiX0XuX0X-X*X*X-XwX}.w w r r r ",
"w w w w +.9.9.N.:XuXiXyXuXtX*.% % + + + + . . % s i & . o + & u s s & . . + + + p - . + + % 2 d.iXqX9X*XK.H.G.G.G.G.2.w w w w w ",
"w w w w X.9.9.9.M.,XuXuXuX`.8 % + % + + + % o . . @ s d h d s ; m = h h a 8 a 3 2 d @ + O o % 8 @XuX*XH.G.G.G.G.G.G.u.w w r w w ",
"w w e e o.s.9.9.9.D.uXuXiXK o + + + + + + . o % . . o . + @ + * @.= o , t 3 + + # i h u - % # $ U yXD.H.G.G.G.G.G.G.s.w w w w w ",
"w w e q @.9.0.0.9.M.tXiX#X= . . + + 3 % + % . + o o % 8 D @ + % 8 O O M ! . + - p @ # @ @ $ + % > ,XP.H.G.G.G.G.G.G.s.w w w w w ",
"w w w : +.,.>.0.9.C.yXuXd.$ . + % + 1 s + + . . o   m e 1.B = . % % O u.! o & s . + . . % + o o $ g.*XK.G.G.H.H.G.J.1.: w w w w ",
"w w q G X.s.M.M.Z.;XuXuXP % + + . + + + d + + . o $   h 3.2.* 8 2 : 8 e.M o i 3 + . + + + % o o 1 @.0XwX&XT.K.J.J.K.s.G q w w w ",
"w q G Y &.+X,XtXuXuXtXuXG + . . o o + . u - + o 5 g - #.l.O.$ U 8 v V ! % + s & . . + + o . o o * P uXiXqXqX9X7X-XR.f.Y G q w w ",
"q F Y Y d.tXiXuXyXtXuXtXk . . . + + + + 3 a + + %.g x z.Q # $ 8 % c B & . . a 0 . . + 5 . o . o % L iXiXqX9XwX:XeX0X}.R Y G q q ",
"G Y Y (.].gXjXpXuXtXyXrXk . 1 1 o 1 + + 4 5 . b 5.x u 3.y $ % % % 4 8 j 2 % % i s 0 u a . . % . + L uXuX8X|.B.:.s.S.}.R R Y G G ",
"Y Y ).).'.zXlXzXkXiXuXtXk . 1 . . . + + d @ # #.l.#.; z B $ % O l 8 % > B z 1 + + 2 u u . % o + % L uXuXC.:.:.:.:.>.-.7 9 H Y Y ",
"Y R ).).'.lXlXlXlXkXaXrXk o . . . + + p - + @ 1.l.U.6.{ x 0 @ < V ; % & X.h 1 2 u . + s + + o + % L uX@X:.:.:.:.:.:.+.7 7 7 9 H ",
"7 G (.(.'.lXlXlXlXlXxXaXk o . 1 2 4 p d +   # O.l.l.l.l.l.8.2.Q q B z @ o.* % 2 z . + # 2 o o + % L uXA.;.:.>.:.:.>.=.7 7 7 6 7 ",
"7 6 G R '.lXzXzXzXxXzXaXk + + + + @ # s & 2 j z 5.l.l.l.7.7.7.j.F.c #.E g $ * % + . % . + . . + % L uXA.:.:.:.:.>.>.+.7 7 7 6 7 ",
"7 6 G T '.lXlXzXzXzXzXaXk + + + + + . 5 5 # y.* #.j.z.l.7.7.7.7.7.6.Q 5.B $ V 8 o . o . + & 3 + & L 0X+X>.s.:.B.M.C.f.7 7 7 6 7 ",
"6 G Y Y OXlXzXlXzXzXxXaXk + + + + + + 4 3 < v.w g 3.x.k.7.7.7.7.7.7.3.6.6.t u.* . o o o + p @ + + L uXtX,X+X8XyXyXsXOX7 7 6 7 7 ",
"G Y Y Y '.lXlXzXzXzXaX5XF . + + @ a p h 1 < !.C a ' x.h.7.7.7.7.7.7.7.8.7.O.V j & % % o 4 ; % + + L uXuXtXiXdXzXlXlX2X7 7 6 7 7 ",
"Y T T T _.kXgXdXpXuXtXtXk . 1 . + + 1 d 2 = v.w I 2.m.b.7.7.7.j.x.7.j.k.7.3.< v B o o . d . 1 + % L uXuXaXdXlXlXlXlX2X6 6 6 6 6 ",
"R R T T i.uXuXuXuXuXtXtXk . + + 1 + + 3 i + y.> E k.n.h.k.j.7.7.b.b.j.7.7.8.y O.1.2 . . d . 1 + & L iXyXdXlXlXlXlXlX2XG G G G G ",
"R T R (.-.-X>X9XuXiXuXrXk 1 + + + . + . d + 2 , 3.x.Q.x.j.Q.n.k.b.Q.k.j.7.8.W 4.5.g . . d 1 + + % L tXaXlXlXlXlXlXlX2XH H Y R R ",
"R H N N =.F.J.R.<X9XuXtXk . . 1 + + + + d . & O.7.m.n.l.7.n.t.n.h.Q.k.b.7.7.4.6.8.c + + s & + + % P uXdXkXlXlXlXlXlX2XH H G J R ",
"N N n n =.L.F.L.P.<XtXrXk . 1 1 + + . 3 i % x U.7.x.h.l.k.!.r.Q.b.b.8.j.j.7.8.7.j.E $ 0 p s + + % L uXlXlXlXlXlXlXlX3XH H G J R ",
"M r n n =.L.L.L.F.P.uXrXk . + . + + + d + . B 8.l.k.x.l.n.r.r.n.h.k.j.b.h.8.7.j.8.E h ; + 2 5 + % L tXaXlXlXlXlXlXlX3XH G G Y R ",
"r r n n =.L.L.L.L.L.*XrXF . . . . . i s s & x q.l.l.l.l.Q.r.r.n.7.k.k.Q.k.j.7.7.8.c 4 + . . . . % L aXiXdXlXlXlXlXlX3XH G G Y N ",
"t n n n =.L.J.L.L.H.%X5Xk . + 1 3 i & + & g ; 2.l.l.l.k.Q.r.r.n.l.k.x.x.j.7.l.8.4.a + @ + + + . 1 L iXuXtXtXaXfXdXdXOXG G G Y N ",
"n n r r =.H.L.F.H.L.&X8Xl X X   X X X X X $ # c q.l.k.n.t.r.r.t.n.h.b.n.k.7.j.5.g   #         .   P iXyXiXiXiXuXiXiXoXG G H N n ",
"n n r r -.=X%XR.E.%XqX0Xg.p.p.d.d.p.p.p.p.p.p.p.R.1XE./.^.^.^.^.~.~.W.^.~.%XE.D.p.p.a.p.p.p.i.p.i.g.tX9X<X=X>X8X0XiXoXG G J N n ",
"n n n n d.uXuXyXuXwX+X X X;XwXqX9XiXqXuXqXqXqXqXiXqX0XqX0XqX0X0XqXqX0X0XqXqX9X9X9XqXqXqX0XuXuXuXuXuX9XE.F.J.G.W.0XiXoXG H N n n ",
"n n n t <.uXuX;XS.9.:.:.:.:.:.N.|.,X0X0X9X0X0X0X0X9X0X0XwX0X0X0X0X0X0X0XqXqXqXqXfXfXiXqX0X0X0X0X8X8XP.L.H.F.H.H.&XiXoXG H N n n ",
"n n n n &.5X{.,.>.s.>.s.:.s.:.>.0.0.A.+X9X9XqXqX0X0X0X0X0X0XqX0XqX0XqXqXqXjXjXhXhXhXhXhXgXiXuXuX0X%XG.F.L.H.F.H.J.9X}.G N n n n ",
"n n n n <.C.,.,.,.;.;.;.;.;.;.;.,.,.;.>.|.;X;X;X;X;X;X+X+X:X+X,X+X+X;X:XuXyXyXyXyXyXyXsXyXyX;X@X+XZ.V.V.V.V.V.V.V. X{.Y N n n n ",
"t I X.| | } | | | | { { | { | { | | | | | | } } [  . .] ] } ] ]  .] ] ] [ ] } } ] ] ] } [ [ ] ] } { ..{ } { { { { } } X.o.g n n ",
"t D | | | X.| } | } } | | | } } | | | | | | | } }  . . . . . . . . . . . . . . . . . . . .}  . .} | } } | | } } { ..}  .] g n n "
};
