/* XPM */
static char *f99f558df5284c79a89047d46281e0baq4i78diPLSlB5E5O[] = {
/* columns rows colors chars-per-pixel */
"64 64 226 2 ",
"   c #1C0E12",
".  c #1D0E1C",
"X  c #170E1D",
"o  c #1E111B",
"O  c #1F1317",
"+  c #220D16",
"@  c #220F1B",
"#  c #2A0E17",
"$  c #211216",
"%  c #22111B",
"&  c #2B111B",
"*  c #291618",
"=  c #33141D",
"-  c #3C141C",
";  c #37181A",
":  c #300F13",
">  c #382C14",
",  c #261521",
"<  c #331521",
"1  c #391520",
"2  c #3C1A24",
"3  c #3C1C29",
"4  c #202020",
"5  c #2C2C2C",
"6  c #3A2D2A",
"7  c #362826",
"8  c #383636",
"9  c #42171D",
"0  c #50181F",
"q  c #403018",
"w  c #483818",
"e  c #543C1C",
"r  c #4E2A1B",
"t  c #431C25",
"y  c #4C1C25",
"u  c #471C27",
"i  c #541D25",
"p  c #581F29",
"a  c #641E25",
"s  c #4B2327",
"d  c #54222B",
"f  c #5A2529",
"g  c #592636",
"h  c #4E332E",
"j  c #622424",
"k  c #663836",
"l  c #783A38",
"z  c #70382C",
"x  c #5C4020",
"c  c #57493C",
"v  c #6C4824",
"b  c #614C21",
"n  c #754727",
"m  c #71443C",
"M  c #604C33",
"N  c #7E3543",
"B  c #733241",
"V  c #6D3F41",
"C  c gray25",
"Z  c #4A4A4A",
"A  c gray33",
"S  c gray36",
"D  c #5E4F43",
"F  c #7C5553",
"G  c #725048",
"H  c #756649",
"J  c #766953",
"K  c #646464",
"L  c gray44",
"P  c #7C7C7C",
"I  c #82343F",
"U  c #86493A",
"Y  c #924A39",
"T  c #945538",
"R  c #856C30",
"E  c #823342",
"W  c #8D544A",
"Q  c #8E5246",
"!  c #95554C",
"~  c #99564E",
"^  c #96584A",
"/  c #965752",
"(  c #9B5351",
")  c #985A53",
"_  c #89534D",
"`  c #AB5C4D",
"'  c #A65847",
"]  c #B05B4D",
"[  c #91645E",
"{  c #936051",
"}  c #876959",
"|  c #B7604F",
" . c #B56559",
".. c #AD745E",
"X. c #A6655C",
"o. c #96786A",
"O. c #9A7D70",
"+. c #AD7363",
"@. c #AD7269",
"#. c #A77C6A",
"$. c #B87063",
"%. c #BD7C65",
"&. c #BD7B68",
"*. c #B47569",
"=. c #B36E65",
"-. c #C86754",
";. c #D77359",
":. c #CD6E53",
">. c #FD7F5C",
",. c #F47E5B",
"<. c #E57855",
"1. c #C07B66",
"2. c #C17C68",
"3. c #D47662",
"4. c #F97E60",
"5. c #E77D60",
"6. c #A38A2F",
"7. c #F1B139",
"8. c #FEDD3B",
"9. c #FBD737",
"0. c #FACF3E",
"q. c #FEE236",
"w. c #FFE13B",
"e. c #978472",
"r. c #9A8573",
"t. c #9D8974",
"y. c #9E8D7A",
"u. c #9E917D",
"i. c #95856F",
"p. c #BE836A",
"a. c #A28C7A",
"s. c #A98D7B",
"d. c #A48C76",
"f. c #A3917C",
"g. c #A8917E",
"h. c #B09078",
"j. c #F4994C",
"k. c #FA8257",
"l. c #FA8B55",
"z. c #FC825B",
"x. c #F68958",
"c. c #F99757",
"v. c #EB8854",
"b. c #F6A94B",
"n. c #F9B748",
"m. c #F9A554",
"M. c #F9B750",
"N. c #C1846B",
"B. c #C48A6D",
"V. c #D78563",
"C. c #C48C71",
"Z. c #C68B76",
"A. c #CA9375",
"S. c #CB967A",
"D. c #D1987A",
"F. c #E88866",
"G. c #F98262",
"H. c #E69165",
"J. c #E99165",
"K. c #E5946A",
"L. c #E39A6D",
"P. c #E8956C",
"I. c #E49C72",
"U. c #FD9262",
"Y. c #CEA17F",
"T. c #DFA97E",
"R. c #E4A579",
"E. c #FCA160",
"W. c #FAC949",
"Q. c #FED743",
"!. c #FCC850",
"~. c #F2D378",
"^. c #F0C97B",
"/. c gray55",
"(. c #999795",
"). c #A89381",
"_. c #B29884",
"`. c #BDAB95",
"'. c #B9A68C",
"]. c gray66",
"[. c #D39D82",
"{. c #D6AB8B",
"}. c #DBAE8E",
"|. c #D3A484",
" X c #DCB28E",
".X c #DAAD90",
"XX c #DEB393",
"oX c #D6B999",
"OX c #C6AB90",
"+X c #E5AD82",
"@X c #E8AB85",
"#X c #E6B386",
"$X c #E6B68C",
"%X c #EAB38C",
"&X c #E7B98D",
"*X c #E4BB93",
"=X c #EABD93",
"-X c #E5BD9B",
";X c #E2B797",
":X c #F0B685",
">X c #DABEA8",
",X c #E8BDA0",
"<X c #DBC29C",
"1X c #E5C195",
"2X c #E5C49C",
"3X c #E9C59D",
"4X c #E6C99E",
"5X c #E9C89E",
"6X c #EAC396",
"7X c #F0C981",
"8X c #DCC1A4",
"9X c #DFC3A9",
"0X c #E4C5A3",
"qX c #E9C7A2",
"wX c #E6C9A1",
"eX c #E9CAA3",
"rX c #ECCFA9",
"tX c #E3C6A9",
"yX c #EDD1A6",
"uX c #EED2AA",
"iX c #F2D5AD",
"pX c #F6D9AE",
"aX c #F5DBB5",
"sX c #F5DBB2",
"dX c #F9DBB4",
"fX c #F3D7B0",
/* pixels */
"P P P w e x x n x x x x x x x x x x x x x x e > w x x x x e e w A K P P L L L L 5 5 5 5 5 5 5 C K L A K S A Z Z Z Z A S S K L P ",
"P L L A w e x n x x x x x x x x x x x x x x x q w x x x e q w A K P P L P L P P C 5 5 5 5 5 Z K L A K A Z Z A A S K K K K K K L ",
"L L L K A w e v x x x x x x x x e e x x x x e q w x x e w Z A K K Z e x x x Z K K Z 5 5 5 Z K L A K A Z A S K K K K K K K K K K ",
"A L P L K A w v x x x x x x x x e e x x x x w > w e w w A K P Z x x w w q w > w K K Z Z Z K L A K K K K K K S A A Z A Z Z Z Z Z ",
"Z A L L P K w v x x x x x x x x x x x x x x w > w w A K P P Z x w w w w q w q w Z P K K K L A K S S S S S S S S S S S S K S S S ",
"Z Z A L L L w e x x x x x e x x x x x x e > w w A K P P K x x w w w w w q w q q > K /.].L A K A Z Z Z A Z Z Z Z Z A Z Z Z Z Z Z ",
"Z Z Z A L P A w e x x x x x x x x x x x > q Z A K P P Z x w w w w w w w q q w > > K ].P A K S Z Z Z Z Z Z Z Z Z Z Z Z Z Z Z Z Z ",
"Z A Z Z A L P A w e x x x x x x x e e q w A K K P K x x w w w w w w w w q q w > > K (.P K A Z Z Z A Z Z Z Z A Z Z Z Z A Z Z Z A ",
"Z Z Z Z Z A P K A w e x x x x e e > q A K K P P Z x e w w w w w w w w w q > w > > K (.K A Z Z Z Z Z Z Z Z A Z Z Z A Z Z Z Z Z Z ",
"Z N E E E E E E E N E E N E E E E E E E E E E E N E E E E E E E E E N N E E E E E E E E E E E E E E E E E E E E E E E E E B A Z ",
"Z E E E E E E E E E E E E E E E E E E E E N E N E E E E E E E E E E E E E E E E E E E E E E E E E E E E E E E E E E E E E N Z Z ",
"A E E E E E E E E E E E E E N E E E E E E E E E N I E E E E E E I E I I E E E E E E E E E E E E E E E E E E E E E E E E N N Z Z ",
"Z N N N E E E E I I I E E E E E E E E E E E E E I E E E E E E E E I E E E E E E E E E E E E E E E E E E E E E E E E E E N N Z Z ",
"Z g g g / @.@.@.@.@.@.X./ / ( ( ( ( ( ( ( ( ( @.+.+.@.@.@.*.*.*.*.*.*.@.@.@.@.X.] ] ` ] ` ` ` ` ] ] ` ` ` ` | =.@.@._ f g B Z Z ",
"Z Z Z 8 ).qXqXqX3X-X|.p.%.&.2.2.&.2.2.2.&.&.&.A.qXqXeXrXaXdXaXaXdXdXdXaXrXwX3XI.K.H.H.H.K.K.K.H.K.K.K.K.H.K.H.%XtXtXr.Z Z Z A Z ",
"Z Z 8 K ).wXwXwX*XC.&.%.&.&.&.&.&.%.&.%.&.&.%.%.C.2XeXiXaXaXaXaXaXaXdXaXrX4X*XH.H.H.K.H.K.F.J.H.H.F.K.F.H.H.H.P.*XrXe.Z C Z Z Z ",
"Z 8 K P ).wXwX2Xp.p.&.&.%.&.p.*.p.%.%.&.%.&.%.%.%.Y.5XiXsXsXaXaXaXaXaXaXsXwX&XH.H.H.H.K.H.H.H.H.H.H.H.H.H.H.H.H.L.5Xe.Z Z Z Z 8 ",
"8 K K Z ).wXwX.X%.%.&.%.&.%.&.%.%.%.%.p.&.%.&.%.p.B.3XrXuXsXsXaXaXaXaXaXsXwX1XR.H.H.H.H.H.H.H.H.H.H.H.H.H.H.H.H.L.6Xi.Z Z Z 8 C ",
"K K Z e ).wXwX|.%.%.%.%.p.%.&.&.%.&.%.&.%.%.p.%.1.B.qXqX0XeXrXuXsXsXsXsXuXwX4X3XT.K.H.H.H.H.J.J.H.H.F.H.H.v.J.J.L.6Xi.Z C 8 C C ",
"K Z h e ).wX0X{.%.%.%.%.%.%.%.&.%.%.&.%.&.%.%.%.%.}.eXqX3X1X4X4X8XwXeXwXwXwXwXeX<X1X&X#XR.R.L.H.H.H.H.H.H.H.H.H.#X5Xi.8 8 8 C K ",
"Z e x w g.wXwX4XA.%.%.p.%.%.%.%.p.%.%.p.p.p.p.D.oX3X-XR.K.H.L.&X4X4XwXwX2X4X2X*X X X X1XqXeX5X4X*X&X#XR.R.R.@X1X4XeXe.C 8 A K K ",
"e x w w g.4X4XwX4X XY.S.[.|.|.{.{.}.XXXXoX<X4X0X4X=XL.J.J.J.J.K.&XwXwXwX1XT.B.%.p.%.%.p.S.-XeXeX4X4XwX4XeX4X5XrXiXpXu.8 A K P Z ",
"x w w w f.6X&X#X#X#X#X=X3XwXeX3X4XwXuXsXsXiX0XwX2XI.H.H.J.H.J.H.I.4XwX4XA.p.%.%.%.%.%.%.%.N.;XwX4X4XwXwX4XyXpXpXsXsXu.A K P Z w ",
"w w w e #.L.K.K.H.H.H.K.R.=X5XeXrXfXsXaXaXsXfXrX*XJ.J.H.H.J.J.J.H.2XwX X..%.%.p...%.%.%.%.%.B.<XwXwXwXwXpXsXpXsXsXsXu.K P Z e x ",
"w w w w +.J.H.J.J.H.J.J.J.P.6XeXuXaXaXaXaXsXdXuX&XH.K.H.H.J.J.J.K.3XwX{.%.%.%.%.%.%.%.%.%.%.%.{.4X4X4XpXsXpXpXsXsXaXu.P K e x w ",
"w w w w ..H.H.H.H.J.J.J.J.J.L.6XuXsXsXaXaXaXdXuX6XL.H.H.K.K.L.I.&X5X5X1XC.%.%.%.%.%.%.%.%.%.%.Z.4X4XuXpXpXsXsXsXsXaXu.K Z e w w ",
"w e e w +.J.H.H.H.J.H.J.J.J.H.+X5XrXyXrXeXeXrX0XeX-X*X&X=X1X2XwXeX5X5X4X6X}.S.N.*.%.%.%.%.p.%.S.wXwXpXsXsXsXsXpXsXsXu.Z e w w w ",
"w e e w +.H.J.J.J.J.J.J.H.H.H.L.3XwX4X4X<X'.y.r.d.t.t.t.t.t.t.t.r.t.t.t.t.t.d._.oXXX|.S.p.p.A.<X4XyXpXsXsXpXsXpXsXaXu.e w w w w ",
"w w w e ..K.H.K.J.J.J.J.J.J.H.L.2XwX'.H 7 $ $ $ + $ $ % O $ O % $ $ $ % % % % $ 7 D _.rXqX3X5XeX4XwXpXsXsXsXsXsXaXaXu.w w w w w ",
"w w w w g.2X*X+XR.P.P.J.J.J.K.T.oXJ * , , o @ % % . + @ + % * * h % O + $   + $ O % $ M OX4XeXwX4XwX4XuXsXsXpXsXsXsXu.w w e e e ",
"w w w w f.wXwXwXeX3X=X%X@X@X%XOXh O O o o   o @ o % @ + 9 t , 6 H * % @ % @ % % %   @   6 OXwXwXwX4X4X4XwXwXwXwXwXwXe.w w e e e ",
"w w w w s.XXXX-XqXqXqX0XeXwX>Xh O O $ % % 3 2 1 - - y g y t @ e H % % @ % % % o o % @ @ % 7 OXeXwX4X4X4X&X#XR.R.{.*XO.w w e e e ",
"w w w w { %.%.N.}.qXwXrXwX4XD % . @ % % @ @ , 1 u 2 < @ @ < i r h X . . . @ % = t = @ @ @ . h >X4X3X=XI.K.H.H.J.H.H.{ w w w w w ",
"w w w w [ %.%.1.%.;XqX0XqXa.O o o 3 = @ . . @ o . . . . @ @ , < r n a j a f i y 3 @ @ @ @ @ , J wX*XL.H.H.H.H.J.J.H.{ w w e w w ",
"w w w w [ 1.1.%.1.A.qXqX0X6 % % @ . y , . % . o . . . , @ @ @ # X 6.X % 3 o , 3 & @ @ , @ @ @ 7 oX+XH.H.H.K.K.H.J.J.{ w w w w w ",
"w w w q [ %.2.%.1.B.3XeX'.  % @ @ . & u . % % % . @ . @ @ . 9 D   b o $ 7 Q . t < . @ . @ @ @ . e.+XH.H.H.H.H.H.H.H.{ w w w w w ",
"w w w > [ %.&.1.1.A.qXwXH o % . @ @ . f . @ % . . o o . . @ d _ & k % @ z ^ . ; u . @ . @ 3 % O c 2XR.K.H.H.H.H.H.K.) > w w w w ",
"w w > Z [ N.B.Z.D.2XeX0Xc O % % @ @ . u = @ % @ @ J * , @ @ + s & ! Y $ Y k @ + p 1 X X ; 2 o o 7 0X3X*X&X{.R.P.H.H.{ Z q w w w ",
"w q Z K ).0X4XwX4XwXwX0Xh O % @ # @ @ 2 < $ $ % @ % % @ @ + @ & l l 4.U Y h = @ @ i p i a = o o O tXqXqX5X5X5X3X=X%Xo.K Z > w w ",
"q Z K K _.wX0XwXwXwX4X9X6 % % @ @ @ @ 2 - + @ @ @ $ o @ ; Q ] ;.U T >.5.z k k @ @ @ X X 9 = o %   >XqXqX5XqXXX{.XXqXi.P K c q q ",
"Z K K /.`.aXfXrX4XwXwX9X7 % @ @ @ @ @ i d u + @ $ M o r ;.3.:.v * v.x.k.] ; Q - % % , @ # s + %   >X5X3X$XB.%.1.%.D.O.P P K Z Z ",
"K K (.(.`.sXaXaXiXrXwX9X6 % @ @ . @ @ p . = y # * R O Q z ; } r ` x.k.x.v.; ] l % % @ . # d 2 %   >X4X X&.%.1.1.&.&.F 5 8 A K K ",
"K P (.(.`.aXaXaXdXfXeX9X6 O o , y @ t & @ @ u < $ ; O s % h T <.>.k.z.x.U.f ;.-.+ @ . 1 y % + @   >X4XB.&.&.1.%.2.2.F 5 5 5 8 A ",
"5 Z /./.`.sXaXdXdXdXaX9X6 O o o @ p 1 @ @ @ @ t $ # s Q :.x.c.>.>.>.,.c.U.l F.F.: @ , p + . % +   8XXX1.%.%.1.1.1.2.F 5 5 5 4 5 ",
"5 4 Z P `.sXsXaXdXdXdXtX6 O o @ @ # d @ @ @ # + j -.x.z.U.>.>.>.>.>.>.c.v.] z.G.9 , u ; . @ @ .   >XXX%.%.%.1.1.%.*.G 5 5 5 4 5 ",
"5 4 Z L `.sXsXaXdXdXdXrX6 o % @ @ . i % . , & ' 4.>.,.,.z.>.>.>.c.z.x.m.<.,.m.5.9 . f # @ @ @ @   8X5XA.N.N.N.B.A.[.o.5 5 5 4 5 ",
"4 Z K K `.sXsXdXaXdXdXtX6 O @ @ @ . d @ # + ( G.z.z.z.>.>.>.>.>.l.z.k.k.>.b.b.3.# . p % @ @ @ @   >X4XqX-X2X0XqXuXfXe.5 5 4 5 5 ",
"Z K K K `.sXsXdXdXiXuX9X6 O % @ . ; s k % f G.G.z.k.z.l.c.>.z.z.z.z.z.>.j.W.v.f @ @ i & @ @ , .   8XwXwXeX0XiXsXsXsX).5 5 4 5 5 ",
"K L L L '.uXuXuXyXwX0X9X6 * & & - i # k ` ' z.z.l.b.m.n.W.k.z.k.b.z.>.k.n.x.U , % . < y @ @ @ @   8XwXqXyXsXsXdXsXsXu.4 4 4 4 4 ",
"P P L L f.4XwXwXwXwXwX8X6 & u f i + . Y ,.,.z.b.W.b.b.W.b.b.z.l.Q.k.>.k.c.' # % % @ . u t & @ .   <XwXrXsXsXsXdXsXsXu.Z Z Z Z Z ",
"P L P /.d.R.&X4XwXeX5XtX6 . @ & i @   -.4.>.l.!.l.z.x.j.W.b.z.b.q.c.>.>.,.s & @ % @ @ + d u < .   8XeXsXsXsXdXdXsXsXf.A A K P P ",
"P A v b ..H.H.I.6X5X5X0X6 @ @ . p @ . :.4.>.m.c.z.z.b.9.Q.x.j.8.q.j.,.k.-.s l @ @ @ @ - t @ @ o   8XuXpXsXsXsXdXsXsXf.A A Z K P ",
"v v x x +.J.H.H.L.=X3XtX6 < 7 1 i @ . -.4.>.c.z.k.W.8.n.l.b.9.q.q.c.x.z.` l  .@ @ @ @ u : # @ o   <XyXpXpXdXpXdXaXsXf.A A c S P ",
"x e x x ..J.H.H.H.L.3X8X6 + @ 9 f # X | 4.G.l.G.n.8.n.j.n.q.q.q.w.x.E.k.-.<.;.# , # s f p s < @   8X4XuXpXpXpXdXsXsXf.A Z Z K P ",
"x e x x ..H.H.H.H.H.$XtX6 $ @ @ - 9 @ l G.>.G.z.9.8.7.W.8.q.q.8.b.U.m.z.4.G.' @ & d < @ % @ = %   >X4X4XuXpXpXpXpXsXu.A Z Z K b ",
"x x x x ..H.H.J.H.H.R.0X6 . @ , & y @ = :.k.x.m.8.q.9.w.q.q.q.0.l.G.z.,.,.4.y @ t & @ @ % % % .   8X4X4X4X5XyX5XyXyXy.Z Z Z K b ",
"x x e e +.K.J.J.H.H.&X8X6 $ $ % ; - @ + 9 :.x.W.Q.w.w.w.w.w.Q.m.M.G.x.z.x.U + + < + @ + o + . +   >X4X4X4XwX4X4X4X8Xe.C Z A v x ",
"x z e e s.;X@X@X+X#XwX9Xg.d.d.d.).a.a.y.f.h.%X7X7X~.~.~.~.~.^.T.^.:X^.%X@Xg.a.d.y.a.y.a.a.a.y.y.d.4X3X6X&X#X6X4X4X4Xi.Z Z K v x ",
"x x e e s.qX0XqXqX-X.X{.{..X-X3XrX0XqXeXrXeXeXwXyXwXeXqXrXwXwXwX5X3XwXwX4XwXqXeXwXwX5XeXwXwXwX4X4X6X+XP.H.H.K.#X4X4Xi.Z A v x x ",
"x x b e s.qXqX%XA.%.%.&.&.&.%.B.[.-XqXeXwXeX3X4X5X5X5X5X5X3X3XqX5XeXwX4X4X4XrXwXyXyXeXeX4X2X4X4X4XR.K.H.J.H.J.H.1X4Xe.Z A v x x ",
"x x x x ).3XS.1.%.%.&.&.&.&.&.2.2.N.S.1X4X4X3XeX4X4X4X4XwXqX4XwXwXwXqXwXuXsXdXpXdXdXdXpXyX5X5X5X&XK.H.J.J.J.H.J.R.2Xe.Z v x x x ",
"x x x x #.&.=.$.$.$.$.$.=.$.$.$.*.$.$.*.|.}..X.X.X.X.X.X.X.X.X.X.X.X.XXX-X,X,X-X,X,X-X,X-X;X.X}.D.V.V.V.V.V.V.V.V.{.o.K v x x x ",
"e G W ^ ~ ~ ~ ( ~ ~ ~ ~ ~ ~ ( ~ ^ ^ ^ ^ ^ / / / / / / / / / / / / / / / / / / / / / / / / / ) ) ) ~ ( ~ ) ^ ^ ) ) ) ! ! G s x x ",
"x k W W Q W W W W Q W W W W W W W W W W W W W W W W W W W W W W W W W W W W W ! W W W W W W W W W W W W W W W Q Q Q W W m s x x "
};
