/* XPM */
static char *_a384b46f48d4f6fce16151e4c8f9ce4wKj9SbNVuzDvHkIy[] = {
/* columns rows colors chars-per-pixel */
"64 64 229 2 ",
"   c #1E0F1B",
".  c #1C0E17",
"X  c #1D1315",
"o  c #1E101B",
"O  c #1F181C",
"+  c #240D15",
"@  c #210F1C",
"#  c #2B0E18",
"$  c #221215",
"%  c #22111B",
"&  c #2B121C",
"*  c #291819",
"=  c #33131D",
"-  c #3B151D",
";  c #37191A",
":  c #320F15",
">  c #382C14",
",  c #26241B",
"<  c #2A1721",
"1  c #331621",
"2  c #3C1A23",
"3  c #381821",
"4  c #202020",
"5  c #2C2C2C",
"6  c #3B2827",
"7  c #373737",
"8  c #42161D",
"9  c #47241C",
"0  c #403018",
"q  c #483818",
"w  c #543C1C",
"e  c #431A22",
"r  c #4A1C24",
"t  c #411E29",
"y  c #531D25",
"u  c #561E26",
"i  c #4D232B",
"p  c #472326",
"a  c #5A242A",
"s  c #562628",
"d  c #49352C",
"f  c #4A2730",
"g  c #543334",
"h  c #533832",
"j  c #652929",
"k  c #72392D",
"l  c #6A3B35",
"z  c #753A38",
"x  c #66332B",
"c  c #5C4020",
"v  c #57463E",
"b  c #6C4824",
"n  c #64412B",
"m  c #7B4337",
"M  c #744C28",
"N  c #702F43",
"B  c #7A3545",
"V  c #763646",
"C  c #693142",
"Z  c gray25",
"A  c #4A4A4A",
"S  c #5C4C46",
"D  c gray33",
"F  c gray36",
"G  c #614C43",
"H  c #6F4D4F",
"J  c #724B4E",
"K  c #755548",
"L  c #715751",
"P  c #7C655C",
"I  c #766048",
"U  c #646464",
"Y  c #7E6463",
"T  c #7F6D64",
"R  c gray44",
"E  c #7C7C7C",
"W  c #81323F",
"Q  c #833F37",
"!  c #884438",
"~  c #94443E",
"^  c #954D3C",
"/  c #9F553D",
"(  c #A5553F",
")  c #833242",
"_  c #883244",
"`  c #894144",
"'  c #8D4D4C",
"]  c #8C4B47",
"[  c #924943",
"{  c #8B544E",
"}  c #8C5A4E",
"|  c #96554D",
" . c #99564E",
".. c #95584C",
"X. c #9B5446",
"o. c #8A5550",
"O. c #8B5A51",
"+. c #855E59",
"@. c #945350",
"#. c #955952",
"$. c #995354",
"%. c #AA5947",
"&. c #B45B42",
"*. c #83645B",
"=. c #8D735D",
"-. c #B36B4E",
";. c #806461",
":. c #8A786C",
">. c #B67463",
",. c #BE7B66",
"<. c #BE7C69",
"1. c #B57868",
"2. c #CA6B55",
"3. c #CF6F51",
"4. c #EB7C57",
"5. c #FB7E5B",
"6. c #F27C5A",
"7. c #E5744F",
"8. c #C07B67",
"9. c #C07B68",
"0. c #D27460",
"q. c #F37F61",
"w. c #F9BE3E",
"e. c #FEDF3C",
"r. c #FBD538",
"t. c #FEE137",
"y. c #FDE13A",
"u. c #968674",
"i. c #9A8574",
"p. c #978679",
"a. c #948872",
"s. c #998A6B",
"d. c #BE836B",
"f. c #BB8268",
"g. c #AC9177",
"h. c #A7917A",
"j. c #D8855D",
"k. c #FA8456",
"l. c #F68C52",
"z. c #F4815C",
"x. c #FA825B",
"c. c #F98A56",
"v. c #F99657",
"b. c #F08951",
"n. c #F9A74B",
"m. c #FAB449",
"M. c #FBA754",
"N. c #F9B559",
"B. c #C3896E",
"V. c #C1836A",
"C. c #D88562",
"Z. c #C58C73",
"A. c #C98D74",
"S. c #D88D71",
"D. c #CA9578",
"F. c #D39D7E",
"G. c #DB966C",
"H. c #E68F65",
"J. c #E98E64",
"K. c #F58163",
"L. c #FB8561",
"P. c #E69165",
"I. c #E89166",
"U. c #E59369",
"Y. c #E89268",
"T. c #E5996E",
"R. c #E8996F",
"E. c #E49C72",
"W. c #E5A276",
"Q. c #E5A57C",
"!. c #E4AA7D",
"~. c #E9A57C",
"^. c #EDB67B",
"/. c #D2A075",
"(. c #FAC945",
"). c #FDD642",
"_. c #F0D36F",
"`. c #F3D175",
"'. c gray55",
"]. c #989898",
"[. c #B29D85",
"{. c #B09D88",
"}. c #AC9D84",
"|. c #BAA188",
" X c gray66",
".X c #D49D81",
"XX c #CC9884",
"oX c #CAA383",
"OX c #D4A383",
"+X c #D9A98A",
"@X c #C7AE92",
"#X c #D7B292",
"$X c #DBB392",
"%X c #DCBA97",
"&X c #D3B08F",
"*X c #E6AE84",
"=X c #EAAB83",
"-X c #E6B187",
";X c #E9B68A",
":X c #E4BB94",
">X c #EABC93",
",X c #E3BD9B",
"<X c #E6B896",
"1X c #D9BFA1",
"2X c #E7BFA2",
"3X c #DDC19F",
"4X c #E6C295",
"5X c #E5C49D",
"6X c #E9C59C",
"7X c #E6C99E",
"8X c #E8C89E",
"9X c #EBC295",
"0X c #E6C18F",
"qX c #DEC3A3",
"wX c #E6C6A2",
"eX c #E9C6A1",
"rX c #E6C9A2",
"tX c #E9CAA3",
"yX c #EBCDA9",
"uX c #E3C7AA",
"iX c #EED1AA",
"pX c #EDD0A7",
"aX c #F2D4AD",
"sX c #EDD4B4",
"dX c #F4D6B1",
"fX c #F6DBB3",
"gX c #F8DBB4",
"hX c #F7DAB8",
"jX c #ECCDAF",
/* pixels */
"E E E q w c c M c c c c c c c c c c c c c c w 0 q c c c w w w q D U E E R R R R 5 5 5 5 5 5 5 A U R D U D D A A D A D F F U R E ",
"E R R D q w c M c c c c c c c w c c c c c c w 0 q c c c w q q D U E E R E R E E A 5 5 5 5 5 A U R D U D A A D D F U U U U U U R ",
"R R R U D q w b c c c c c c c c w w c c c c w 0 q c w w q A D U U A c c c c A U U A 5 5 5 Z U R D U D A D F U U U U U U U U U U ",
"D R E R U D q b c c c c c c c c w w c c c c q 0 q w q q D U E A w n q q 0 q > q U U A A A U R D U U U U U U F D D A A A A A D A ",
"A D R R E U q b c c c c c c c c c c c c c w q > q q D U E E A c q q q q 0 q 0 q A E U U U R D U F F F F F F F F F F F F F F F F ",
"A A D R R R q w c c c c c w c c c c c c w 0 0 q D U E E U c c q q q q q 0 q 0 0 > U '. XR D U D A A A A D A A D A A A D A A A A ",
"A A A D R E D q w c c c c c c c c c c w 0 0 A D U E E A c q q q q q q q 0 0 q > > U  XE D U D A A A A A A A A A A A A A D A D A ",
"A D A A D R E D q w c c c c c c c w w 0 q D U U E U c c q q q q q q q q 0 0 q > > U ].E U D A A A A D A A A A A D A A A A A A A ",
"A A A A A D E U D q w c c c c w w > 0 D U U E E A w w q q q q q q 0 q q 0 > q > > U ].U D A A A A A A A A A A A A A A A A A A A ",
"A V V B V B V B B B B B B B B B B B B B B B B B ) B B B B B B B z ) B B B B B B B B B B B B B B B B B B B B B B B B B B B N A D ",
"A V B B B ) ) W ) ) ) W W W W W W W ) B ) ) W W ) W W W ) W B W W W ) ) W W W _ ) W W ) W W W W ) W W W ) ) W W ) z _ W W ) A A ",
"A B ) ) B ) ) ) ) ) ) B ) ) B ) ) ) B _ ) ) ) ) _ _ _ ) _ ) _ ) ) _ ) ) W _ W W W W ) W W W _ W W _ W W ) ) W ) B W ) W W B A A ",
"D B ) ) W _ _ _ ) _ _ ) ) ) ) ) ) ) ) B _ _ _ _ _ _ _ _ ) _ _ _ _ _ _ _ _ _ _ W W W _ _ _ _ W ) ) W ) ) ) ) ) ) _ _ ) W W B A A ",
"A C N N J ' ] ] { ] { ] ` ` ` ` ` _ ] ` ` ] _ ' ` ' ' ' ' { ' ' ' ' ' ' ' ] ' [ [ [ Q [ ~ ~ ~ ~ ~ ~ ~ ~ ~ ~ [ [ ' ' ] l V z A A ",
"A A A 7 Y rX8XtXtXrX$XZ.<.<.d.<.<.<.<.<.<.<.9.XX2XyXjXjXfXhXhXhXhXhXhXaXuXeX2X;XY.Y.Y.U.P.P.U.U.U.U.Y.U.U.U.U.~.8X6X3XA A A A A ",
"A A 7 U Y 7XrXrX7XOXf.,.,.,.<.<.,.<.,.<.<.<.8.8.B.,XeXyXfXgXgXgXgXgXhXdXpXeX8XR.J.J.Y.Y.P.P.P.P.I.P.P.I.P.I.Y.U.*XwX3XA A A A A ",
"A 7 U E Y eXwXeX+X,.,.,.,.,.,.8.8.,.,.8.,.8.,.8.,.D.6XpXfXfXfXgXgXgXfXfXfX8X6XR.I.I.I.P.P.P.P.I.I.I.P.P.P.I.I.I.T.>X3XA A A A 7 ",
"7 U U A Y wXtX,Xd.,.,.,.,.,.8.,.,.8.8.8.8.,.8.,.,.V.4XtXaXgXfXfXgXgXfXfXgXpX7X!.P.I.I.I.I.I.I.I.P.P.P.P.P.P.I.H.U.;X%XA A A 7 Z ",
"U U A w Y tXtX#X1.<.,.8.,.8.8.8.8.,.8.,.9.,.,.8.,.,.:XwXtXtXpXaXdXfXfXfXfXtX7X6X!.U.I.I.I.I.I.I.P.I.P.P.I.I.P.P.P.-X3XA Z 7 Z Z ",
"U A w w Y tX8X$X,.8.8.8.8.8.8.,.,.8.,.8.<.8.,.8.<.A.wXwXtX7X7X7X7XpXiXpXpX8XrX7X7X>X;X~.W.R.Y.I.J.I.I.I.U.P.P.I.T.9X3X7 7 7 Z U ",
"A w c q Y rXtX7XD.<.<.V.9.9.8.8.,.,.,.,.,.8.8.V..XwXeX:XW.U.W.;X7X7XrX7X7X7X7X7X5X4X4X5XtX7X5X>X;X-X!.E.E.R.E.Q.4X7X3XZ 7 D U U ",
"w c q q Y 7XrXrXwXOXZ.B.A.A.D.D.F.F.OX+X+X+X<XeXrXeX*XP.H.P.H.U.-X7XrXrX7X3XOXB.f.<.<.B.D.,XtXwXrXrXrXrXrXrXrXrXyXiXiX7 D U E A ",
"w q q q P 5X6X9X>X;X>X6X8XeXtXeX5XrXpXiXsXiXyXrXrX*XP.H.P.P.P.H.T.4X7XrX;Xf.f.>.,.,.,.,.,.f.$XeXrXrXrXrXrXrXiXdXfXfXdXD U E A q ",
"q q q w +.W.E.U.U.U.U.T.!.9X7X7XtXiXfXfXfXfXdXyXwXU.H.H.P.P.H.H.P.;XrX5Xf.>.,.,.,.1.,.,.,.,.<.%XrXrXrXrXyXdXfXgXfXgXsXU E A w c ",
"q q q q O.U.U.P.P.P.Y.P.P.T.>X5XpXfXfXfXfXfXfXaX7XP.I.I.I.I.I.P.P.;X7X:Xf.,.,.,.<.,.,.<.,.<.,.A.rXrXtXpXfXgXgXgXfXgXsXE U w c q ",
"q q q q } U.H.U.P.P.I.H.P.P.T.9XaXdXfXfXfXfXfXaXrXT.P.P.I.I.P.T.Q.4X7X6XD.,.<.<.,.<.<.1.,.,.,.<.3XrXtXfXgXgXgXgXgXgXiXU A c q q ",
"q w w q O.U.P.I.P.H.P.I.P.P.P.Q.tXtXpXpXyXpXyXyX7X>X^.-X;X>X>X9X7X8X7X7X5X+XZ.f.1.,.f.<.,.,.,.<.3X7XiXfXgXgXgXgXgXgXaXA w q q q ",
"q w w q O.I.I.I.J.P.P.P.P.P.P.P.6X8XtX7XrX3X@X[.[.[.[.[.[.{.{.{.{.{.[.[.[.[.|.@X%X+X.XZ.d.f.d.OX7X7XaXfXgXgXgXgXgXgXiXw q q q q ",
"q q q w O.Y.J.I.P.P.P.P.P.P.P.J.0X7XqXh.G 6 < @ $ $ $ o $   % X o $ $ % @ @ $ * 6 I |.pX,X:X5XeX7XrXpXfXfXfXgXgXfXfXsXq q q q q ",
"q q q q *.9X-X~.T.U.P.P.P.P.P.T.5X}.d %   <   @ @ @ % o + % X o $ o % % @ % < % % % * A |.7X7XtXrXrXrXiXfXfXgXfXfXfXsXq q w w w ",
"q q q q ;.8X8X8X7X9X;X-XW.W.!.9X:.% %   @ @ @ @ @ @ % 1 % % o * % % % % % % 2 % % % o % 5 g.8X6X7XtXrXrXtXpXpXpXyXpXrXq q w w w ",
"q q q q ;.6X,XeXtX7X7X7X7X7X7X*.X X % @ @   @ @ @ @ = 3 < o $ v %   % % @ 2 j X o % o % o 1 g.7X7X7X7X7X7X;X-X-X-X;X%Xq q w w w ",
"q q q q H f.,.B.+X5XtX7X7X7Xa.* = = @ @ @ @ o @ @ @ i =   * , : = f o = p = - a &     @ @ @ 4 oXrX7X6X*XT.U.U.P.P.G.D.q q q q q ",
"q q q q H ,.,.,.f.$XeX8X7X%X, o @ 1 y - +   % %   e r 2 p g b s : 9 a r @ @   & a y 3 @ @ @ o h 5X7X!.Y.Y.U.U.U.Y.P.S.q q w q q ",
"q q q q H 8.,.8.8.B.eXeXeXP o o @ + o e e % @ + 2 u     o 1 ; s.9 ; @   @ @ @ & 3     @ @ @ @ % h.0XP.P.Y.Y.P.P.P.Y.S.q q q q q ",
"q q q 0 J 8.8.,.8.V.,XwX%X6 < % @ o     r e 2 s 3 @   < % + * s.X * % @ @ @ @ t 1 @ @ @ @ @   % v 4XU.P.Y.Y.I.P.P.I.S.q q q q q ",
"q q q > J ,.,.8.8.f.5XtXg.X o % % o o o % j : + @ @   1 & m p 6 O h < o @ @ @ t # @ @ @ @   @ @ * #X*XU.Y.P.U.U.P.P.S.0 q q q q ",
"q q 0 A H ,.9.B.B.;XwX7X=.X o % @ @ @   @ u   @   + + J # s H.M % @ o o o @ @ - 8 @ @ @ @ @ @ @ X {.8X4X-X*XW.G.H.P.S.A 0 q q q ",
"q > A U P <X5X5XeXeX7XeXL . @ @ @ @ @ o - e X o   x + l + + 7.z.m $ + g + %   + i & @ @ @ @ @   X h.5X5X5X4X7X4X:X*X.XU A 0 q q ",
"0 A U U T tXtXwXrX8X7XrXG   < @ @ @ @ & i       . [ & + 6 6 %.k.6.9 + K ; $ p o 1 a 1 @ @ @   @ X i.rX7X5X7X4X#X%X6X,XE U A 0 0 ",
"A U U '.u.dXdXyXtXtXtXwXS % @ @ @ # 2 a & %       2.3 x z ! X.c.b./ d h m * ^ X % & r i r 3 3 @ X i.8X7X6X/.V.,.,.B.@XE E U A A ",
"U U ].].p.fXgXgXaXyXwXrXG o @ @ % 1 # 2 e   o % p 3.: 0.! [ 2.v.b.7.I 9 ,.s ; $ % o @ + r & & @ X i.eX5XD.8.,.,.,.,.f.5 Z D U U ",
"U E ].].p.gXgXgXgXdXyXrXS   @ @ @ @ @   r & @   l z z q.! J 4.k.v.4.9 b 6.l $ % @ @ @ @ y   @ % X i.eXF.8.8.,.8.<.,.1.5 5 5 7 D ",
"5 A '.'.p.hXgXgXgXfXdXyXG % @ @   % @ @ = r @ % k 9 2.q.k m x.x.c.5.Q 4.x.m % % @ @ @ & u   @   $ i.8XA.V.8.,.<.,.,.1.5 5 5 4 5 ",
"5 4 A E p.hXgXgXgXgXgXaXG % % @ % % @ @ & r % % 6 9 4.L.! ( L.L.k.x.5.x.x.z = s @ % @ @ i # 2 @ X i.7XZ.,.,.,.,.<.<.1.5 5 5 4 5 ",
"5 O A R p.gXgXgXgXgXgXdXG % @ @ & 3 @   r = % % ; x L.x.%.3.z.x.c.k.M.k.z.Q l &.+ % @ @ e y & @ X i.5X+X<.,.<.f.d.Z.oX5 5 5 4 5 ",
"4 A U U p.hXgXgXgXdXfXiXG @ @ @ @ & i 8 p o % $ [ k x.x.z.7.z.x.m.v.v.k.4.2.2.2.$ %   e e @ @ @ X i.wXtX5X,XwXwXyXyXuX5 5 4 5 5 ",
"A U U U p.hXgXgXgXdXaXtXG . @ @ % % + a & o % * 0.k z.c.x.x.x.c.n.v.x.M.x.5.6.( @ % & u @ @ @   X i.wXwXwXeXyXdXfXhXsX5 5 4 5 5 ",
"U R R R a.aXaXiXpXtXrXrXS o % % @ $ @ - e o o 9 q.%.4.k.x.v.l.N.l.x.z.N.z.5.K.k @ @ y & @ @ @   X i.wXtXtXaXdXgXfXgXsX4 4 4 4 4 ",
"E E R R P 8XtXrXyXrXrXrXS % @ @ % o   & r % $ a K.6.5.v.c.l.l.(.n.l.l.N.b.6.4.; @ @ r 1 @ @ @ o X i.wXrXaXgXfXgXgXgXsXA A A A A ",
"E R E '.*.;X0X7X8XtXrXrXG o % @ @ % @ 1 t % % x x.5.x.c.v.v.l.r.(.m.l.M.5.x.&.; f < < u @ @ @ % X i.eXaXhXgXgXgXhXgXsXD D U E E ",
"E D b b } I.I.T.0X8XyXrXG % @ @ @ @ @ y & @ @ X.q.x.c.c.m.v.M.t.e.e.n.v.l.v.&.2.Q @   3 u 1 % @ X i.tXdXfXfXhXgXgXgXsXD D A F E ",
"b b c c } U.I.I.T.;XtXrXG + % @ @   3 a 1 @ # ^ 5.5.v.m.r.(.r.t.t.t.r.m.n.M.5.K.) <     t - 1 @ X i.eXfXgXgXgXgXhXhXsXD D A U E ",
"c c c c } U.P.I.I.T.9XrXG   % @   2 - # u & % Q L.x.v.).y.t.t.t.t.t.r.w.l.k.x.K.x <   @ f + @ @ X i.wXaXhXgXhXgXfXhXsXD A A U E ",
"c w c c } U.P.P.P.I.!.8XG   @ @   @ @ @ 1 r @ k K.x.l.r.t.t.e.t.e.t.t.r.M.k.q.0.< @ @   p # @ % X i.wXrXaXdXdXgXgXgXsXD A Z U b ",
"c c c c } U.P.P.P.I.W.7XG % % @   @ @ @ & e @ ; 0.5.l.(.t.e.t.e.t.t.t.r.n.5.q.x @ @ @   & & @ @ X u.wXeXwXrXtXyXyXyXuXA A A U b ",
"c c w w O.U.P.P.P.I.!.7XG * < % $ % @ $ & & @ # x z.x.m.y.e.e.y.e.e.e.e.n.6.~ # # @ @ % % # @ % $ i.wXrXwXeXeXtXrXrXuXA A D n w ",
"c c w w Y <X*XQ.!.;X9X7Xg.i.i.i.i.i.i.u.a.u.a.a.a.F.=X^.`._._._._._.`.`.^.=Xi.u.i.i.i.i.u.u.u.u.i.@X7X7X>X:X>XeXrXrX1XA A U b c ",
"c c c c Y eX7XtX8X5X:X+X+X$X,XwXyXtXrX7XrXtXtXtX7X7X6X7XtX7X7XtX7X7X7XtX8XtXtXtXeXeXeXeXtXeXtXtXeX6X;XW.U.P.U.E.6XeXuXA D b c c ",
"c c n w ;.eXeX<XF.f.,.,.,.1.,.B.F.%X7X7X7X7X8X7XtX7X7X7XrXrXrXrX6X7X7X7XtX6XtXtXpXyXpXtXeX8XeXeX7X>XG.H.I.P.I.I.Q.rXqXA D b c c ",
"c c c c Y tXF.f.,.,.,.,.,.,.,.,.,.<.D.:X7X7X5X7X7X5XrX7XrX7X7X5X5X7XrX7XpXdXdXgXdXgXdXgXaX7XtXrX6XG.U.J.H.H.P.J.P.0XqXA b c c c ",
"c c c c Y d.>.>.>.>.>.>.>.>.>.>.>.>.>.>./.+X&X#X#X#X#X#X#X#X#X#X#X#X#X$X,X,XeX>XwX5X6X,X5X,X#X$X*XC.j.C.C.j.j.C.j.F.&XU b c c c ",
"w g ..$.@.....| |  ............. ........... .#.#.#.#.#.@.#.#.@.#.#.@.#.#.@.@.#.@.#.#.@.@.#.@.@. . .X. .| $. .@...#.$.@.@.f c c ",
"n g { { { { { { { { { { { { { { { { { { { { o.o.o.{ O.{ o.o.O.o.O.O.o.o.O.o.{ O.o.{ O.o.o.O.o.o.@.{ o.@.@.@.@.@.@.| @.@.@.i c c "
};
