/* XPM */
static char *_9fe9bcde53c4495a33a7f92b550fc5dUCk7vth301fbEluv[] = {
/* columns rows colors chars-per-pixel */
"64 64 220 2 ",
"   c #1B0C15",
".  c #1D0F1B",
"X  c #170E12",
"o  c #1B1115",
"O  c #1E101C",
"+  c #171214",
"@  c #230B16",
"#  c #220F1C",
"$  c #2A0E19",
"%  c #2B0E17",
"&  c #22111C",
"*  c #2C121C",
"=  c #2D1D1D",
"-  c #261316",
";  c #33131C",
":  c #3B131C",
">  c #341718",
",  c #370F18",
"<  c #2D221C",
"1  c #382C14",
"2  c #32201C",
"3  c #2A1521",
"4  c #341522",
"5  c #3D1B25",
"6  c #351921",
"7  c #202020",
"8  c #2C2C2C",
"9  c #372726",
"0  c #383737",
"q  c #45191E",
"w  c #403018",
"e  c #483818",
"r  c #543C1C",
"t  c #55241E",
"y  c #431A24",
"u  c #481A23",
"i  c #531C25",
"p  c #45212A",
"a  c #4C232C",
"s  c #492627",
"d  c #54232B",
"f  c #5A2728",
"g  c #4C2730",
"h  c #563636",
"j  c #4B3730",
"k  c #652929",
"l  c #66342B",
"z  c #683937",
"x  c #77303F",
"c  c #773B35",
"v  c #74392E",
"b  c #5C4020",
"n  c #5E483C",
"m  c #6C4824",
"M  c #7C4339",
"N  c #6E482F",
"B  c #7C3541",
"V  c #733341",
"C  c #772F41",
"Z  c gray25",
"A  c #4A4A4A",
"S  c gray33",
"D  c gray36",
"F  c #634D46",
"G  c #764B49",
"H  c #645448",
"J  c #72574F",
"K  c #7C5F5C",
"L  c #7B655C",
"P  c #6E624C",
"I  c #646464",
"U  c #7C6661",
"Y  c gray44",
"T  c #7C7C7C",
"R  c #833937",
"E  c #87453B",
"W  c #9A4A3A",
"Q  c #905039",
"!  c #A5543E",
"~  c #88763A",
"^  c #823442",
"/  c #893E46",
"(  c #8C3E49",
")  c #923E45",
"_  c #8C4045",
"`  c #8C4149",
"'  c #894B42",
"]  c #924649",
"[  c #8E574E",
"{  c #915547",
"}  c #94554C",
"|  c #99564A",
" . c #9A5545",
".. c #8C5A50",
"X. c #875C52",
"o. c #945953",
"O. c #955550",
"+. c #A55847",
"@. c #B45B47",
"#. c #A25C50",
"$. c #83635A",
"%. c #9C625B",
"&. c #BB6349",
"*. c #B56A4C",
"=. c #816864",
"-. c #8E7868",
";. c #BB7666",
":. c #BE7B65",
">. c #B87B68",
",. c #D7745B",
"<. c #CF7058",
"1. c #E7795A",
"2. c #FD7F5C",
"3. c #F17C59",
"4. c #C07C65",
"5. c #C07A69",
"6. c #D27360",
"7. c #EE7D62",
"8. c #FCDB3B",
"9. c #FCD93B",
"0. c #F4C739",
"q. c #FDE337",
"w. c #FEE238",
"e. c #9C866E",
"r. c #968775",
"t. c #9B8671",
"y. c #988878",
"u. c #BD8165",
"i. c #BC856A",
"p. c #AD9177",
"a. c #8E825F",
"s. c #F3984B",
"d. c #F6835C",
"f. c #FB815B",
"g. c #FA8858",
"h. c #FA9856",
"j. c #EF8A50",
"k. c #F4A948",
"l. c #FAA857",
"z. c #F7B64A",
"x. c #C1846A",
"c. c #C38A6D",
"v. c #C08064",
"b. c #D88B68",
"n. c #DE9568",
"m. c #C58C71",
"M. c #C48A72",
"N. c #CA9579",
"B. c #C99679",
"V. c #D59B7B",
"C. c #E58F67",
"Z. c #E88C66",
"A. c #F78264",
"S. c #E69165",
"D. c #E89165",
"F. c #E4946A",
"G. c #E89269",
"H. c #E2996D",
"J. c #E59C72",
"K. c #DFAB7E",
"L. c #E4A276",
"P. c #E3A67C",
"I. c #E6A87C",
"U. c #EDBE79",
"Y. c #FAC948",
"T. c #FACD48",
"R. c #F1D472",
"E. c #EFD470",
"W. c gray55",
"Q. c #989898",
"!. c #B49B82",
"~. c #B8A188",
"^. c gray66",
"/. c #CA9C82",
"(. c #D3A382",
"). c #D7A98A",
"_. c #CDB38D",
"`. c #D1B28D",
"'. c #DBB08E",
"]. c #CDB292",
"[. c #DDB495",
"{. c #DCB898",
"}. c #CDAC8F",
"|. c #E5AE83",
" X c #E8AA82",
".X c #EAB58B",
"XX c #E6B589",
"oX c #E5BC94",
"OX c #EABC92",
"+X c #E2BD9A",
"@X c #E3B69A",
"#X c #F1A981",
"$X c #EABDA2",
"%X c #DEC29A",
"&X c #EAC295",
"*X c #E5C49D",
"=X c #EAC59D",
"-X c #E6C99E",
";X c #E8C99E",
":X c #E6C496",
">X c #DBC2A2",
",X c #E5C6A1",
"<X c #EBC3A3",
"1X c #E6C9A1",
"2X c #E9CAA3",
"3X c #EDC5A9",
"4X c #ECCEA9",
"5X c #E3C9AA",
"6X c #ECD0A7",
"7X c #EDD1AA",
"8X c #F1D4AD",
"9X c #F4D8AD",
"0X c #EACFB0",
"qX c #EDD3B4",
"wX c #F3D6B3",
"eX c #F4DBB3",
"rX c #F5D9B2",
"tX c #F6DBB3",
"yX c #F8DBB4",
"uX c #F5D7B8",
/* pixels */
"T T T e r b b m m b b b b b b b b b b b b b r w e b b b r r r e S I T T Y Y Y Y 8 8 8 8 8 8 8 A I Y S I S S A A A A S D D I Y T ",
"T Y Y S e r b N b b b b b b b r b b b b b b r w e b b b r e e S I T -.Y T Y T T A 8 8 8 8 8 A I Y S I S A A S S I I I I I I I Y ",
"Y Y Y I S e r m b b b b b b b b r r b b b b r w e b r r e A S I I A r b b b A I I A 8 8 8 A D Y S I S A S D I I I I I I I I I I ",
"S Y T Y I S e m b b b b b b b b r r b b b b e w e r e e S I T A b b e e 9 e 1 e I I A A A I Y S I I I I I I D S S A A A A S A A ",
"A S Y Y T I e m b b b b b b b b b b b b b r e 1 e e S I T T A b e e e e e e w e A T I I I Y S I D D D D D D D D D D D I D D D D ",
"A A S Y Y Y e r b b b b b r b b b b b b r w w e S I T T I b b e e e e e 1 e w w 1 I W.^.Y S I S A A A A A A S A A A A A A A A A ",
"A A A S Y T S e r b b b b b b b b b b r w w A S I T T A b e e e e e e e w w e 1 1 I ^.T S I S A A A A A A S A A A A A A S A S A ",
"A S A A S Y T S e r b b b b b b b r r w e S I I T I b b e e e e e e e e w w e 1 9 I Q.-.I S A A A A A S A A A A A S A A A A A A ",
"A A A A A S -.I S e r b b b b r r 1 w S I I T T A r r e e e e e e 1 e e w 1 e 1 1 I Q.I S A A A A A A A A A A A A A A A A A A A ",
"A x x x V C C x x x x x x x x x C C B C C C C C C C C C B C C C B C C B x C x x x x x x x x C x B C C C B C C C V V C C B V A A ",
"A ^ ^ ^ ^ B ^ ^ ^ ^ ^ ^ ^ ^ ^ ^ ^ ^ ^ B ^ ^ ^ ^ ^ ^ ^ ^ B ^ ^ ^ ^ ^ ^ ^ ^ ^ ^ ^ ^ ^ ^ ^ ^ ^ ^ ^ ^ ^ ^ B ^ ^ ^ ^ B ^ ^ ^ ^ B A S ",
"A ^ ^ ^ ^ ^ ^ ^ ^ ^ ^ ^ ^ ^ ^ ^ ^ ^ ^ ^ ^ ^ B ^ ^ ^ ^ ^ ^ ^ ^ ^ ^ ^ ^ ^ ^ ^ ^ ^ ^ ^ R ^ ^ ^ ^ R R ^ R ^ ^ ^ R ^ ^ ^ R ^ ^ B A A ",
"A / ^ ^ ^ ^ ^ ^ ^ ^ ^ ^ ^ ^ ^ ^ ^ ^ ^ B ^ B ^ B ^ ^ ^ ^ ^ ^ ^ ^ ^ ^ ^ ^ ^ ^ ^ ^ ^ ^ ^ ^ ^ ^ ^ B C ^ ^ ^ ^ ^ B ^ B ^ R x ^ x A A ",
"A V C C ^ ` ] ( ` ` ` ` / / / / / / _ / / / ( ( ` ( ( ` ` ` ] ] ] ] ` ( ] ` ` _ ) ) ) / ) / _ _ ( / _ ` _ ) ` ( ( ( ( x B x A A ",
"A A A 0 $.=X$X<X<X<X@Xm.;.;.;.;.;.;.5.;.;.:.;.B.$X$X3X5X7XuXtXwXuXuXuX0X5X>X2X|.C.S.C.S.S.Z.F.Z.S.Z.G.Z.C.C.b. X$X<X+XA A A S A ",
"A A 0 I $.=X2X;X;X(.5.5.5.:.:.:.:.5.5.5.5.>.;.;.i.,X,X1XeXeXwXeXuXeXeXeX7X,X*XJ.C.Z.S.Z.S.S.C.C.S.D.D.D.C.C.C.G.|.2X%XA Z A A A ",
"A 0 I T L 2X;X;X(.:.:.:.:.5.:.5.u.5.:.5.:.5.:.:.;./.,X4XtXtXeXeXeXeXeXeXeX6X*XF.C.S.S.Z.D.D.S.D.D.D.D.D.D.D.D.S.F.=X>XA A A A 0 ",
"0 I I A U 2X2X+Xu.:.:.:.5.:.5.5.5.:.5.5.4.:.5.5.5.i.+X2XwXtXeXeXeXeXeXtXeX6X-XI.S.S.S.S.S.D.S.D.D.S.D.D.D.D.D.D.S.XX>XA A A 0 Z ",
"I I A r U 2X,X[.:.:.:.:.5.:.5.:.4.:.5.:.:.5.5.5.:.i.{.1X1X2X7X8XeXeXtXtXwX6X-X&XL.G.Z.S.D.S.S.S.D.D.D.D.D.D.D.D.S.XX%XA Z 0 Z Z ",
"I A e b U 1X1X[.>.:.:.:.:.5.:.5.:.5.:.5.5.:.5.5.:.B.1X-X;X;X;X-X1X4X6X7X2X1X;X-X;XOX|.I.J.H.H.F.D.D.D.D.D.D.D.D.F.:X>X0 0 0 Z I ",
"A r r e U 2X1X,Xm.:.:.:.5.:.:.:.:.:.5.5.u.:.:.x.V.-X-X.XP.n.L.oX;X-X-X,X,X2X2X2X;X=X*X2X1X-X:XoX.XI.L.J.H.H.H.I.:X-X>XZ 0 S I I ",
"r m e e U 2X1X1X=X(.m.c.m.m.m.B.B.V./.(.).'.@X<X-X;XI.n.S.S.S.S.XX2X-X2X-X:X(.c.u.4.4.x.V.oX-X1X;X;X;X;X=X=X;X-X2XqX0X0 S I T A ",
"r e e e L 2X1X*XoXoX&X&X;X2X2X2X1X1X2X4X8X7X1X1X1X|.S.S.S.S.S.D.H.&X1X2X'.u.:.:.:.5.4.:.:.x.'.-X;X,X2X,X2X2X4XwXeXeXqXS I T Z r ",
"e e e r $.P.H.F.F.S.S.G.|.:X-X-X1XwXtXtXtXtXwX2X:XS.S.S.S.S.S.S.S.XX1X*Xv.:.:.:.:.:.4.5.4.:.x.oX2X1X,X2X2XtXyXyXtXtXqXI T A r b ",
"e e e e X.F.C.S.F.C.G.G.Z.H.&X=X6XtXtXtXeXtXtX8X-XS.S.S.S.S.C.Z.S.XX1X+X:.:.:.:.:.4.:.:.:.:.:.c.2X,X1X6XyXyXyXtXtXtXqXT I r b e ",
"e e e e ..S.S.S.C.S.Z.G.C.G.J.&X6XtX9XtXeXeXtX7X1XH.S.S.S.C.S.H.L.&X-X,Xc.4.4.4.4.:.:.:.:.;.:.v.{.2X2XyXyXyXyXtXtXtXqXI A r e e ",
"e r r e ..S.S.S.G.C.S.S.G.C.S.I.;X6X7X6X6X7X7X2X2XOX|.|..X.XOXoX;X1X1X1X+XK.c.v.:.:.:.:.:.:.:.:.+X2X7XtXyXyXyXyXtXtXuXA r e e e ",
"e r r e o.S.G.S.C.G.C.G.F.S.S.H.&X;X2X1X-X-X{.].`._.`.`.`.].]._._._._._._.`.`.'.{.).N.x.:.:.:.V.,X1XwXuXyXyXyXyXtXtXqXr e e e e ",
"e e e r X.n.F.S.D.S.S.D.S.D.D.F.:X:X%Xp.H 8 + + X   O . . + + + . . . O O   O O 0 P ~.=X=X%X%X,X2X,X7XtXyXyXyXyXyXtXqXe e e e e ",
"e e e e $.OX|.J.n.F.S.D.D.S.D.n.*X~.n & O O O O O & . O # $ @ j   O O * - O O O & & = H ].-X-X1X1X2X2X8XyXyXyXyXyXuXqXe e r r r ",
"e e e e =.3X2X2X=X&X.XP.L.L.I.OX-.= 3 O & & O O O O O . . & * z # # O 3 > O O o o & & & < p.-X-X1X1X1X1X2X4X4X4X7X6X>Xe e r r r ",
"e e e e =.+X*X,X2X2X2X;X=X2X-X=.  & . . O & 6 O O O # . # q s $ # # # - u # # & O & & & & 7 p.1X;X;X;X1X-XoXXX|.XXOX,Xe e r r r ",
"e e e e J u.:.m.'.<X*X2X1X1Xy.- # # # $ . # 3 i i y y f f > 9 O . # . . u 5 @ # # # # # # # 9 }.*X-X;XXXH.G.D.D.G.G.V.e e e e e ",
"e e e e G u.:.:.:.@X2X2X2X{.1 & # # # u # # # . y * ; - O O = H o # 3 # # u d 4 $ $ # # # # $ A %X-X XC.G.S.G.G.G.G.b.e e r e e ",
"e e e e G ;.:.;.:.c.2X2X,X$.@ & # # # i # # # 4 5 & & & & & - a.& & # # # # $ i u : $ # # # # # p.OXn.C.G.G.D.G.G.G.b.e e e e e ",
"e e e 1 G >.:.:.:.u.+X1X%X9 & & # # # u 3 # 4 d * 2 < & & @ O < . # # # # & & y # # # # # # # # n @XC.G.D.D.G.S.S.D.b.e e e e e ",
"e e e 1 G :.:.:.:.i.=X-Xp.= O # # # # i y i d 3 3 0 2 - & & O & & & # - 3 & # p # # # # # # # # 2 {.K.F.S.S.D.G.G.G.b.1 e e e e ",
"e e w A J u.i.M.m.'.1X1X-.O & # # # . i 4 3 . . . . = & = 9 < < 9 j &   z @ # 9 $ # # # 3 # # # O p.-X:XXXI.J.F.S.G.b.A w e e e ",
"e 1 A I U {.{.*X1X,X-X,XJ O # # # # # i # # O O # - H = f ! P e f G - o | % @ 4 u # # # . . # . 3 t.1X1X-X-X;X:X.X X(.I A w e e ",
"w A I I =.2X2X2X2X,X,X,XH O # # # # 4 p # # # O   z   & ! +.= > *.E - q 6.> & @ d 3 . # # # # . O r.-X-X-X-X*XoXoX;X+XT I A w w ",
"A I I W.y.9X8X4X1X,X,X,XF O # # # # a $ # # # #   &.; ; ,.g * E A.z r Q *.N & & - k * O # # # # o t.%X1X1X(.i.>.>.m.{.T T I A A ",
"I I Q.Q.W.yXyXyXtX1X1X,XF O # # # i : # # # . # & 1.v > [ 4 +.g.g.l s #.c ~ O & & > k u 3 # # # O r.1X1XB.:.:.:.:.:.p.8 0 S I I ",
"I T Q.Q.r.tXyX9XtXwX2X1XF O # 3 u y y # # # 4 g   3.1.t 5 @.d.h.j.c f h 3 e & s . u 4 # 4 # # # O r.-X(.:.:.u.:.>.:.>.8 8 8 0 S ",
"8 A W.W.r.eXtXyXtXtXeX2XF X # # # # a @ : # d o.  1.A.,.W 3.g.f.3.M  .. 9 O O l . : 5 # # 3 4 # O t.-Xi.:.:.:.:.:.u.>.8 8 8 7 8 ",
"8 7 A T r.tXtXtXtXyXyXwXF # O # # @ g % z p y s   &.2.f.f.f.g.A.d.E E M l 3 & - O # i . $ a # # & t.-Xc.:.:.:.>.>.>.>.8 8 8 7 8 ",
"8 7 A Y r.tXtXtXtXyXyXwXF @ 5 4 # @ g % z E G q * ' 2.f.f.s.f.f.g. .a 7.f & & & & # y u y ; # O O r.-X(.:.:.:.:.M.i./.8 8 8 7 8 ",
"7 A I I y.tXtXtXtXyXyX7XF # & y u @ d @ G @.Q ,.f  .g.f.f.f.f.f.f.,.! d.l @ z O # # . 5 k # # # O t.-X1X*X+X*X<X5X0X5X8 8 7 8 8 ",
"A I I I y.tXtXtXtXtXwX1XF & & O u i 4 # c @.f A.2.3.f.f.f.f.f.h.j.3.<.2.E v M & & & & # d # . . O r.%X1X,X,X4X8XuXyXqX8 8 7 8 8 ",
"I Y Y Y t.9X9X7X7X2X,X>XH & & & & f $ # z +.- ,.f.2.g.g.f.f.g.l.s.2.3.f.<.W ; # # # O # i O O & O r.-X1X;X9XtXyXyXyXqX7 7 7 7 7 ",
"T T Y Y L ;X1X-X1X1X1X1XH & & & & u , # 4 c s R f.f.l.s.g.h.k.h.j.2.A.d.3.t ' @ @ & O # d @ O . O t.-X2X9XyXyXyXtXyXqXA A A A A ",
"T Y T W.L '.:X:X1X1X1X1XF & & & # ; : & $ a { k f.2.h.k.l.Y.k.g.j.h.f.2.2.+.1.l & & O . 5 4 . O O t.%X9XtXyXtXtXyXtXqXS S I T T ",
"T S m m ..D.D.L.oX1X2X1XF & & # . ; q & * ' <.@.f.2.g.k.Y.8.k.j.z.z.f.2.3.1.2.! o O O & # y & . O t.%XeXtXtXtXtXtXtXqXS S Z I T ",
"m m b b X.S.D.D.F.oX1X1XF & & 3 3 4 , & # +.2.2.2.f.h.z.8.8.0.z.Y.s.h.2.f.f.2.! & @ O # # # # 3 O r.-X9XeXeXtXtXeXeXqXS S A I T ",
"b r b b ..S.D.D.G.H.OX1XF & . O # y $ # * } 2.2.f.h.s.T.q.q.8.9.T.h.z.2.f.f.2.@.& O : d p 3 # O O t.-X7XeXeXeXeXtXeXqXS A A I T ",
"b r b b ..S.S.S.S.S.|.-XF # & # # y & & - M 2.2.2.d.s.T.q.q.q.w.w.l.T.g.A.2.f.W . ; a *   . . 3 O t.-X-X6XeXeXeXtXtXqXS A A I m ",
"b b b b ..S.S.S.S.S.L.-XF . 3 # 3 # & & O s A.f.2.l.k.Y.q.q.q.q.w.9.8.s.2.f.2.l . y 3 # 3 # # # O r.-X-X-X-X6X6X6X6X,XA A A I m ",
"r m r r X.S.S.S.S.n.I.;XF O X . X   X   X   *.d.2.k.q.q.q.w.w.8.w.w.9.k.2.2.1.@ o @ + #     @     t.-X2X-X-X,X-X-X-X>XA A S m b ",
"r r r r L .X|.|.I.K.;X;Xp.p.t.t.t.t.t.e.e.e.i.I. XU.E.E.R.R.R.R.R.E.R.R.#X#XV.e.e.e.e.e.e.e.e.e.t._.-X=XOXOXOX-X-X-X>XA A D m b ",
"m r m r L 2X2X<X2X*X[.).'.'.+X3X,X2X;X-X;X2X;X;X,X-X;X;X;X;X-X;X;X;X;X;X;X;X;X;X;X;X;X;X2X;X;X;X-X-XOXL.S.S.F.I.-X-X%XA S m b b ",
"m r r r U 2X2X+XV.i.v.4.:.:.u.c.(.:X-X-X;X;X;X;X-X-X;X;X;X;X-X;X;X;X;X;X;X;X;X;X6X;X6X;X;X=X;X;X;XOXS.D.C.D.Z.G.K.-X>XA S m b b ",
"r b b b U <X(.:.:.:.4.5.:.:.:.:.;.:.B.{.<X<X<X2X,X<X1X2X,X1X,X2X2X,X1X1X2X6XtXtXyXyX9XyX8X1X;X2X&XJ.Z.S.D.G.C.D.S.OX%XA m b b b ",
"l b b b o.N.>.;.;.;.;.;.:.;.;.;.;.;.;.>.).@X[.[.[.[.[.[.[.[.[.{.[.[.{.+X3X3X3X3X3X3X3X3X3X$X@X{.|.b.b.b.b.b.b.b.b.(.'.I m b b b ",
"r h o.o.O.} | | } } ] | O.| { {  .O.} } } } { } { { { { { { { { { { { { { {  .{ { { { { { { { { { |  . .| | | | } } { o...g b b ",
"m h ..o.O.} O.} | } O. .O.| } } O.O.O.} } [ [ [ O.O.} } } [ } } } } | [ | [ { { } [ } } } } [ } } | { { } | } } } } O.O.o.s b b "
};
