/* XPM */
static char *_c6ac4623372401daeabe02bccaafa774wJiypaNEdA2M9mx[] = {
/* columns rows colors chars-per-pixel */
"64 64 223 2 ",
"   c #1C0C14",
".  c #1D0E1C",
"X  c #170D17",
"o  c #1C1216",
"O  c #1E101B",
"+  c #240C15",
"@  c #220F1C",
"#  c #2A0E1A",
"$  c #290C14",
"%  c #221216",
"&  c #22111B",
"*  c #2B131B",
"=  c #24181C",
"-  c #2B1517",
";  c #33141D",
":  c #3A141D",
">  c #33161B",
",  c #310E12",
"<  c #382C14",
"1  c #3F281C",
"2  c #272018",
"3  c #1F1121",
"4  c #2C1521",
"5  c #2C1921",
"6  c #3A1621",
"7  c #3C1A24",
"8  c #331821",
"9  c #202020",
"0  c #2C2C2C",
"q  c #3A2728",
"w  c #373737",
"e  c #441B1D",
"r  c #601F18",
"t  c #4A211D",
"y  c #403018",
"u  c #483818",
"i  c #543C1C",
"p  c #51271E",
"a  c #451B23",
"s  c #491C24",
"d  c #431B27",
"f  c #521D24",
"g  c #591E26",
"h  c #631F26",
"j  c #49232B",
"k  c #472628",
"l  c #522425",
"z  c #55282B",
"x  c #492933",
"c  c #4F3232",
"v  c #642329",
"b  c #653F3D",
"n  c #6A3733",
"m  c #76343C",
"M  c #6C322C",
"N  c #762C1F",
"B  c #5C4020",
"V  c #5B4B37",
"C  c #6C4824",
"Z  c #7B4A3D",
"A  c #79443A",
"S  c #704B30",
"D  c #762F41",
"F  c #773140",
"G  c #7C3542",
"H  c #6E2F41",
"J  c gray25",
"K  c #4A4A4A",
"L  c gray33",
"P  c gray36",
"I  c #5B4C41",
"U  c #6D554A",
"Y  c #6C594B",
"T  c #695848",
"R  c #725549",
"E  c #774F4A",
"W  c #776152",
"Q  c #796152",
"!  c #7D6955",
"~  c #7B6959",
"^  c #646464",
"/  c gray44",
"(  c #7C7C7C",
")  c #82333F",
"_  c #8A3A29",
"`  c #864236",
"'  c #964C3A",
"]  c #823341",
"[  c #8C3D46",
"{  c #8D3F49",
"}  c #933D47",
"|  c #8C424B",
" . c #884A43",
".. c #934E43",
"X. c #8E564C",
"o. c #8F594B",
"O. c #93564C",
"+. c #99554A",
"@. c #975548",
"#. c #915650",
"$. c #935954",
"%. c #895752",
"&. c #A95949",
"*. c #AB5F51",
"=. c #B15F4E",
"-. c #826D5E",
";. c #9E6056",
":. c #BB654A",
">. c #B06756",
",. c #8B7664",
"<. c #BE7B66",
"1. c #B97669",
"2. c #BD7C69",
"3. c #B87767",
"4. c #D56D51",
"5. c #DD7758",
"6. c #C66B57",
"7. c #FC7E5D",
"8. c #F47C5A",
"9. c #E97655",
"0. c #C27B66",
"q. c #D77965",
"w. c #EA7C60",
"e. c #FDDD3A",
"r. c #FAD43A",
"t. c #F8CC38",
"y. c #FDE137",
"u. c #FEE139",
"i. c #9E8671",
"p. c #9E8973",
"a. c #9B8878",
"s. c #9E876F",
"d. c #BE816B",
"f. c #BE8569",
"g. c #A68E75",
"h. c #F69A4C",
"j. c #FB825B",
"k. c #F88756",
"l. c #F99956",
"z. c #F2934A",
"x. c #F7A44C",
"c. c #F8B449",
"v. c #FAAE58",
"b. c #C2846C",
"n. c #C38A6E",
"m. c #D88766",
"M. c #D58B68",
"N. c #DB9369",
"B. c #C68D72",
"V. c #C98974",
"C. c #C79276",
"Z. c #CA977A",
"A. c #D69E7B",
"S. c #E68E66",
"D. c #E78B67",
"F. c #F78661",
"G. c #E69265",
"H. c #E99165",
"J. c #E4936A",
"K. c #E2996D",
"L. c #E89169",
"P. c #E49C72",
"I. c #E49772",
"U. c #E3A175",
"Y. c #E4A47A",
"T. c #E5A97D",
"R. c #E9A67C",
"E. c #EFB47A",
"W. c #FBC847",
"Q. c #F9C452",
"!. c #EDC67A",
"~. c #F1D373",
"^. c gray55",
"/. c #989898",
"(. c #AC9581",
"). c #BCA284",
"_. c gray66",
"`. c #D29D81",
"'. c #CF9D80",
"]. c #C6A587",
"[. c #D5AB8A",
"{. c #DCAE8E",
"}. c #D5A786",
"|. c #CDB28D",
" X c #D7B28D",
".X c #DEBA95",
"XX c #DEB698",
"oX c #DAB898",
"OX c #CFAF94",
"+X c #E6AD83",
"@X c #EBAC84",
"#X c #E5B48A",
"$X c #E8B489",
"%X c #E3BB95",
"&X c #E9BC93",
"*X c #E3BC9C",
"=X c #E4B896",
"-X c #E9BEA3",
";X c #DDC29C",
":X c #EBC196",
">X c #E5C49D",
",X c #EAC59D",
"<X c #E6C89E",
"1X c #E9C99E",
"2X c #E6C196",
"3X c #DEC4A1",
"4X c #E6C6A2",
"5X c #EAC5A3",
"6X c #E7C9A1",
"7X c #E9CAA3",
"8X c #EBCEA8",
"9X c #E7C9AA",
"0X c #F2CBA9",
"qX c #EED2AB",
"wX c #ECD2A7",
"eX c #F1D4AD",
"rX c #F1D8AF",
"tX c #EBD5B2",
"yX c #EFDEB4",
"uX c #F5DBB3",
"iX c #F8DBB4",
"pX c #F7D3B5",
"aX c #F6CCB1",
/* pixels */
"( ( ( u i B B S B B B B B B B B B B B B B B i < u B B B B i i u L ^ ( ( / / / / 0 0 0 0 0 0 0 K ^ / L ^ P L K K K K L P P ^ / ( ",
"( / / L u i B S B B B B B B B B B B B B B B B y u B B B u u u L ^ ( ( / ( / ( ( K 0 0 0 0 0 J ^ / L ^ L K K L L ^ ^ ^ ^ ^ ^ ^ / ",
"/ / / ^ L u i C B B B B B B B B i i B B B B i y u B B i u K L ^ ^ K B B B B K ^ ^ K 0 0 0 K ^ / L ^ L K L P ^ ^ ^ ^ ^ ^ ^ ^ ^ ^ ",
"L / ( / ^ L u C B B B B B B B B i i B B B B u < u i u u L ^ ( K B B u u y u < u ^ ^ K K K P / L ^ ^ ^ ^ ^ ^ P L L K K K K K K K ",
"K L / / ( ^ u C B B B B B B B B B B B B B B u y u u L ^ ( ( K i u u u u y u y u K ( ^ ^ ^ / L ^ P P ^ P P P P P P P P ^ ^ P P P ",
"K K L / / / u i B B B B B i B B B B B B i y y k L ^ ( ( ^ B B u u u u u y u y y < ^ ^._./ L ^ L K K K K K K K K K K K K K K K K ",
"K K K L / ( L u i B B B B B B B B B B B < y K L ^ ( ( K B u u u u u u u y y u < < ^ _.( L ^ P K K L K K K K K K K K K K K K K L ",
"K L K K L / ( L u i B B B B B B B i i y u L ^ ^ ( ^ B B u u u u u u u u y y u < < ^ /.( ^ L K K K K K K K K K L L K K K L K K K ",
"K K K K K L ( ^ L u i C i i C i i y y L ^ ^ ,.( K i i u u u u u u y u u 1 < u < < ^ /.^ L K K K K K K K K K K K K K K K K K K K ",
"K H G F D H G G m m F F D F D D F D F F F F D ] G F F D F F F F F F F F F F F F F F F F D m F F D F G m G D G D F F F F F F K L ",
"K G ] ] ] ] ] ] ) ] ) ] ] ] ] ] ] ] ] ] ] ] ] ] ] ] ] ] ] ] ] ] ] ] ] ] ] ] ] ] ] ] ] ] ) ] ] ) ] ] ) ] ] ] ] ) ] ] ] ] ] ] K K ",
"K G ] ] ] ] ] ] ) ] ] ] ] ] ] ] ] ] ] ] ] ] ] ] ] ] ] ] ] ] ] ] ] ] ] ] ] ] ] ] ] ] ] ] ] ] ) ] ] ] ] ] ) ] ] ] ] ] ] ] ) G K K ",
"K D ] ] ] ] ] G ] G G ] ] ] ] ] m ] ] ] ] ] ] ] ] ] ] ] ] ] ] [ ] ] ] ] ] ] ] ] G ] ) ) ) ) ) ) ) ) ) ) ] ) ) ) ] m ) ) ) G K K ",
"L H D D G | | | | | | | { { [ [ [ [ [ [ [ [ { | { { { | | | | | | | | | | | { } | | [ [ [ [ [ [ } [ [ [ { } } [ | { { m m m L K ",
"K K K w E 9X5X5X9X5XXXC.2.2.1.<.<.<.<.<.<.<.<.V.*X-X-X9X0XpXpXpXpXpXpXaX9X4X,X$XG.H.H.H.H.H.D.H.S.S.H.H.S.S.D.U.:X5X3XK K K K K ",
"K K w ^ R 9X5X6X1X}.2.2.<.<.<.<.<.<.<.<.<.3.<.<.V.*X4X7XuXuXuXuXiXiXiXiX0X4X,XP.H.G.G.G.H.G.G.H.H.H.H.H.H.H.J.G.+X,X;XJ K K K K ",
"K w ^ ( Y 9X5X6X X2.2.<.2.<.2.<.<.<.<.<.<.<.<.<.2.Z.>X8XuXuXuXuXtXuXuXuXuX7X,XP.G.G.G.G.G.G.G.G.H.H.H.H.H.H.H.H.K.:X>XK K K K w ",
"w ^ ^ K Y 9X6X>Xb.2.2.<.2.<.<.2.<.<.<.<.<.<.0.<.<.d.%X6XeXuXuXuXuXuXuXuXuXqX,XT.G.G.G.G.G.G.H.G.H.H.H.H.H.H.H.H.G.#X3XK K K w J ",
"^ ^ K i Y 6X6X%X<.<.2.2.<.<.<.0.2.2.<.<.2.0.<.<.<.<..X<X<X6XwXqXyXyXuXuXuXwX>X,XT.G.J.G.G.H.G.G.G.H.H.H.H.H.H.H.G.+X;XJ J w J J ",
"^ K i i U 7X6X%X<.2.<.2.<.2.0.2.<.<.0.2.<.<.<.0.<.B.>X6X<X1X1X1X1X7XwXqX7X<X1X6X<X2X+XE.U.G.J.J.G.J.H.H.H.H.H.H.K.&X3Xw w w J ^ ",
"K i i u Y 6X6X6XZ.0.2.0.0.<.0.<.2.0.<.<.<.<.<.<.Z.>X5X&XT.K.U.$X1X1X6X6X4X6X6X7X<X2X,X5X4X>X2X&X$X@XY.U.K.K.P.R.:X<X3XJ w L ^ ^ ",
"i i u u Y 5X6X6X-X}.C.b.n.B.C.C.Z.Z.'.}.}.{.=X,X<X1X+XJ.G.G.J.J.@X1X5X6X6X>X}.B.f.f.<.b.A.*X7X6X6X<X>X1X1X1X1X1X1XtX3Xw L ^ ( K ",
"C u u u Y 1X,X:X&X&X&X,X,X,X6X5X6X6X8X8XqXqX4X4X<X+XH.G.G.G.G.G.K.&X6X5X#Xf.<.<.<.<.<.0.<.b.{.<X6X6X6X6X1X1X7XeXuXyXtXL ^ ( K i ",
"u u u i R R.K.J.I.L.L.I.@X&X,X6X6XqXuXiXiXuXuX7X<XJ.H.G.G.G.H.G.J.@X6X,Xn.<.<.<.<.0.<.<.<.0.d..X6X6X<X6X7XeXuXyXuXyXtX^ ( K i i ",
"u u u u Z H.H.G.G.G.G.G.S.K.&X1X8XyXiXiXiXiXuXeX>XK.G.G.S.S.J.J.G.T.6X>X<.<.<.<.2.0.2.<.<.2.<.n.4X6X6X7XuXuXyXiXuXuXtX( ^ i B u ",
"u u u u Z J.J.G.G.G.G.G.H.J.K.&XqXuXiXiXiXuXuXeX2XU.G.G.J.J.J.N.U.:X<X>XZ.2.<.<.2.2.<.2.<.<.3.f..X6X7XuXiXyXiXiXuXyXtX^ K B u u ",
"u i i u ` J.G.G.G.G.G.G.G.G.J.U.6XqXtXeXqXqXqX7X2X:XT.+X#X#X&X%X,X>X<X6X>X}.B.b.2.2.<.<.<.<.<.<.XX6XqXiXiXuXiXiXiXuXtXK i u u u ",
"u i i u Z H.G.G.H.G.G.G.G.G.G.G.&X,X4X4X6X6XoX|.|.|.|.|.|.|.|.|.|.|.|.|.|.OXOXoXXX[.Z.V.<.<.3.Z.4X6XrXiXiXuXyXiXiXuXtXi u u u u ",
"u u u i A J.G.G.H.H.G.G.G.G.G.J.&X9X3X).T 0 X O o o O X O X O X O X O O . o   O w Y ).4X4X%X>X5X5X6X7XiXiXyXuXiXiXiXtXu u u u u ",
"u u u u Y &X@XY.K.G.G.G.G.G.G.N.4X].c = O 4 & & O O . @ O O . & O O O % . O O O & O * I OX5X6X6X4X4X6XeXuXuXiXiXiXiXtXu u i i i ",
"u u u u T <X6X<X1X:XE.T.U.U.T.&Xi.- % @ . 8 @ & & & & @ & 4 @ = % & & @ % . O O % O O O 2 p.5X5X4X6X4X6X6XwXqX7XqXqX6Xu u i i i ",
"u u u u R >X%X>X1X1X<X<X1X1X1Xs.= % % & @ j # @ & & # 8 O &   q . @ @ @ @ % O * a = O O o 5 a.6X>X4X4X6X<X.X#X#X$X#X%Xu u i i i ",
"u u u u V d.<.b. X1X<X<XwX3X(.> & . @ % @ g s 7 @ @ @ d O O o V   @ @ @ @ . s s & @ O % . 4 & ].6X4X<X#XI.G.J.G.G.J.N.u u u u u ",
"u u u u H 2.<.2.<. X6X5X<X;Xk & @ @ & . @ @ . 8 s @ @ a 7 O 3 o 4 @ @ @ . a 7 . @ % % @ . . O c 3X4X+XG.J.G.G.S.S.S.D.u u i u u ",
"u u u u I 0.<.<.<.b.4X6X6X,.o & @ @ @ & @ 3 4 . s # @ @ d s k % . 3 @ @ @ z . @ @ @ % . . @ @ & i.>XN.J.S.S.S.S.S.H.M.u u u u u ",
"u u u < H 0.<.<.0.0.%X6X6X0 & % & & % @ @ @ O . 8 s @ @ & k M S p ; ; : # h X @ @ @ @ % @ . @ @ c >XK.J.J.G.G.G.S.S.N.u u u u u ",
"u u u < H f.3.2.<.b.&X5X).o o & . @ % @ . . O . ; a O & * V j S 1 7 6 4 . f : . @ @ @ @ * s & @ o |.+XJ.J.G.L.G.S.H.N.< u u u u ",
"u u y K b 2.f.d.n.{.5X6Xs.% O O & O . % . 4 @ * l + T   ; 5.l . 8 7 @ @ @ @ f f 6 8 * + z $ @ . X (.6X2X#XY.P.N.G.H.N.K y u u u ",
"u < K ^ U *XXX4X4X6X6X7X~ = & 4 8 # @ + # # a v * . 9 * &.w.7 # +.& 3 @ 3 @ . 7 : : # @ x + @ @ O ,.7X5X,X5X,X>X%XT.A.^ K < u u ",
"u K ^ ^ W 9X6X7X6X6X6X9XW & O @ ; 7 x v z s : g # % % b 4.:.$ ..=.@ @ @ @ 3 @ x + @ @ @ * 8 @ @ O ~ 7X5X5X4X4X.X%X>X%X( ^ K y y ",
"K ^ ^ ^.~ iXuXwX6X6X6X9XW = 3 O 3 @   # g @ . f > z O k 5.n l D.&.+ d 4 & 4 . x + @ @ @ %   ; 7 5 ~ 6X4X<XA.f.<.<.f.XX( ( ^ K K ",
"^ ^ /./.-.iXuXuXuX7X5X6XW = & O @ @ @ @ 8 a . ; # *.t k &.- >.l.:.+  .. 2 9 . s : @ @ @ s f ; = O ~ 6X>XA.f.<.0.<.d.d.0 w L ^ ^ ",
"^ ( /./.-.iXuXuXiXuX8X4XW = & 3 @ @ @ 3 @ s 3 3 * 0.r ;.p p k.l.5.+ >.l q T = * z # # z > . & . & ! 6X[.d.<.<.<.2.2.1.0 0 0 w L ",
"0 K ^.^.-.uXuXyXiXuXiX9XW = 3 O @ 3 @ @ 8 a . . 4 q.N w.e &.k.j.7.k =.` = V O & ; s z : O @ 3 & = ! <XC.<.<.0.<.0.2.2.0 0 0 9 0 ",
"0 9 K ( -.iXyXiXiXuXiXtXQ = O 3 @ @ . : g @ * 4 - 6.N w. .j.j.j.7.` A S , + O O @   h @ @ @ & O & ! 7XC.<.<.3.<.2.d.3.0 0 0 9 0 ",
"0 9 K / -.iXyXiXiXiXiXuXW = O & @ @ 6 8 @ @ &  ., E ' F.j.j.j.j.j.6.- c - % & % @ @ f 6 @ % O O & ! 7X[.<.<.<.<.b.f.Z.0 0 0 9 0 ",
"9 K ^ ^ ,.iXiXiXuXiXpXuXW = O . @ @ @ @ @ . 4 n *., =.7.c.8.j.k.j.9.N ` b % % % @ @ @ g s 6 * & & ! 7X6X>X*X>X,X0X0X4X0 0 9 0 0 ",
"K ^ ^ ^ ~ iXyXiXiXuXrX9XW = & . @ . @ @ @ @ . k w._ 5.k.l.l.c.8.j.8.4.5.: k k % + @ @ @ $ : 7 O = ~ 7X6X4X6X7XeXiXuXtX0 0 9 0 0 ",
"^ / / / ~ uXeXqXqX7X6X8XW = O O * # 3 @ @ . A z w.8.7.l.j.l.x.k.j.j.7.j.z &.> + x @ & : d @ 3 O & ! 5X4X4XeXuXuXpXuXqX9 9 9 9 9 ",
"( ( / / R 1X>X<X3X6X6X9XW = & O & 7 7 @ & k n Z 8.7.z.v.k.F.k.v.k.k.7.j. .A O + %.+ & l @ 4 @ & = -.6X6XeXuXuXiXpXiXtXK K K J K ",
"( / ( ^.R #X%X<X6X6X6X7XW = O O @ @ 7 7 & z  .l 8.7.h.v.k.k.x.Q.k.c.8.7.@.t o l ;.* d : & @ & @ & ! 7X8XuXuXuXuXiXpXeXL L ^ ( ( ",
"( L C C Z G.G.P.&X<X<X7XW = O & @ . . v O , q.' 8.7.k.v.z.x.W.r.h.c.k.7.&.4.p &...% a ; & & O O & ! 7XuXuXuXpXiXiXiXeXL L K ^ ( ",
"C C B B Z J.G.G.L.$X1X6XW = & & & . O v X $ q.7.F.k.k.l.x.r.y.y.h.h.l.k.5.j.&.>.p & : s @ & . O = ! 7XuXuXuXiXuXiXiXrXL L K ^ ( ",
"B B B B Z G.G.G.L.K.&X5XQ = O O @ O 7 s . $ q.7.k.v.h.v.c.y.y.y.c.x.h.v.j.j.9.n $ @ % a s @ . O % -.6XqXuXuXpXuXiXiXqXL K K ^ ( ",
"B i B B Z J.G.J.L.H.+X6XW = O . & s g & @ + >.7.k.l.h.W.y.y.y.y.e.t.x.W.k.7.w.a @ @ @ @ 4 s : @ % ! 6X7X8XuXuXiXpXiXtXL K K ^ C ",
"B B B B Z J.G.G.J.H.P.6XW = 6 s s * . @ @ + ' 8.c.k.x.W.y.y.y.y.e.e.r.u.h.7.5.> + . @ @ @ O . @ & ~ 6X6X6X6X4X7XwXwX9XK K J ^ C ",
"B B i i A N.S.S.H.H.Y.<XW o X X       +     p F.W.x.Q.e.u.y.y.y.y.e.e.u.h.j.:.        X   X X     ! 6X1X6X6X6X6X5X1X;XK K L C B ",
"B B i i U &X+X+XY.+X:X<X).p.s.s.i.i.s.i.s.s.s.A.!.!.!.~.~.~.~.~.~.~.~.~.E.@XZ.p.p.p.p.p.p.p.p.p.p.].<X<X&X$X&X4X6X<X3XK J ^ C B ",
"B B B B Y 6X6X5X>X>X%X[.}. X;X,X6X6X6X6X<X<X6X6X>X<X6X6X1X6X6X6X1X1X6X6X1X7X1X6X1X1X6X1X<X<X1X<X<X<X2XU.J.S.G.Y.>X6X4XK L C B B ",
"B B B i T 6X6XXXA.d.<.<.<.<.f.b.'.XX6X6X6X6X<X6X<X6X<X6X1X6X1X6X1X<X<X6X<X1X5X7XwX7X8X7X>X<X<X<X<X&XK.G.G.G.G.S.Y.,X;XK L C B B ",
"B B B B U 4X}.2.1.0.0.1.f.0.2.<.2.<.C.XX,X6X6X6X6X4X<X6X6X6X6X<X1X6X6X6X7XrXiXiXiXiXiXpXwX1X<X6X1XA.S.G.L.H.H.J.K.%X;XK C B B B ",
"B B B B E '.3.1.1.1.1.1.3.3.1.1.1.1.3.<.'.XXXXXXoXXXXXXXXXXXXXXXXXXXXXXX5X5X5X5X5X5X5X0X5X5XXXoX#XM.m.m.m.m.m.m.m.}.{.^ C B B B ",
"M c $.$.+.O.+.+.$.$.+.+.+.O.O.+.+.+.O.+.+.o.X.o.O.X.O.o.o.O.X.O.o.o.O.X.X.X.O.O.X.X.X.X.O.X.X.X.@.@.+.@.+.+.+.+.+.@.O.$.#.j B B ",
"B c $.#.#.O.#.+.+.+.+.O.O.O.O.#.O.O.O.O.O.#.X.#.#.#.#.#.#.#.#.#.#.#.#.#.#.#.#.#.#.#.#.#.#.#.#.X.O.O.O.+.#.+.#.O.O.@.o.#.o.x B B "
};
