/* XPM */
static char *_27816cf7ae44f4b82c62953e790953ffpAnJ8skoBhw0bsX[] = {
/* columns rows colors chars-per-pixel */
"64 64 222 2 ",
"   c #1E0E15",
".  c #1D0E1B",
"X  c #1C1215",
"o  c #1F111C",
"O  c #230D15",
"+  c #220F1C",
"@  c #290E1B",
"#  c #2B0D15",
"$  c #231515",
"%  c #22121C",
"&  c #2D131C",
"*  c #2A161A",
"=  c #34141C",
"-  c #3A131D",
";  c #381718",
":  c #300E14",
">  c #382C14",
",  c #37281F",
"<  c #2E2312",
"1  c #1E1720",
"2  c #291522",
"3  c #341924",
"4  c #3C1B25",
"5  c #381724",
"6  c #202020",
"7  c #2C2C2C",
"8  c #3A2725",
"9  c #373737",
"0  c #461C1D",
"q  c #403018",
"w  c #483818",
"e  c #543C1C",
"r  c #41201F",
"t  c #441B23",
"y  c #4A1B24",
"u  c #451924",
"i  c #521D25",
"p  c #571E27",
"a  c #4D2324",
"s  c #4B222B",
"d  c #452325",
"f  c #562429",
"g  c #453A29",
"h  c #4D2530",
"j  c #532934",
"k  c #523837",
"l  c #6C322A",
"z  c #663A38",
"x  c #743638",
"c  c #672D29",
"v  c #5C4020",
"b  c #53493B",
"n  c #6C4824",
"m  c #7C4A3B",
"M  c #7C4139",
"N  c #714B33",
"B  c #6F3244",
"V  c #773345",
"C  c #793345",
"Z  c #7C3F42",
"A  c #682F46",
"S  c gray25",
"D  c #4A4A4A",
"F  c gray33",
"G  c gray36",
"H  c #5F5343",
"J  c #6D5A4A",
"K  c #6C5747",
"L  c #735649",
"P  c #714E48",
"I  c #74644C",
"U  c #7A674F",
"Y  c #7B6953",
"T  c #7D6757",
"R  c #646464",
"E  c gray44",
"W  c #7C7C7C",
"Q  c #83353F",
"!  c #894538",
"~  c #9A4833",
"^  c #833441",
"/  c #8A4046",
"(  c #8D4C4C",
")  c #8B4349",
"_  c #954541",
"`  c #934B45",
"'  c #8E534B",
"]  c #93554D",
"[  c #9A564E",
"{  c #97584D",
"}  c #98554A",
"|  c #8F4D50",
" . c #904E51",
".. c #965850",
"X. c #965652",
"o. c #AE5B4A",
"O. c #836E5D",
"+. c #816E57",
"@. c #817345",
"#. c #B76656",
"$. c #B6654F",
"%. c #937C66",
"&. c #8A7765",
"*. c #B47362",
"=. c #BE7C66",
"-. c #BE7C6A",
";. c #B57868",
":. c #C56C57",
">. c #D4755B",
",. c #D36E50",
"<. c #E87959",
"1. c #FD7F5B",
"2. c #F47D5C",
"3. c #C07A66",
"4. c #C17B69",
"5. c #DB7A63",
"6. c #E97D61",
"7. c #F16E60",
"8. c #FEDC3C",
"9. c #FEE236",
"0. c #FDE23C",
"q. c #968672",
"w. c #998572",
"e. c #9F8970",
"r. c #968471",
"t. c #BE836A",
"y. c #BC8268",
"u. c #AA947B",
"i. c #D6855F",
"p. c #F4884D",
"a. c #F6954E",
"s. c #EB805D",
"d. c #FA8455",
"f. c #FC815B",
"g. c #F88857",
"h. c #F99857",
"j. c #F3AA47",
"k. c #F7B749",
"l. c #F9A855",
"z. c #FBBB57",
"x. c #EDAA45",
"c. c #C2856C",
"v. c #C68B6D",
"b. c #DC8D67",
"n. c #C58D73",
"m. c #CE8F7C",
"M. c #CD9A7D",
"N. c #C69477",
"B. c #D59978",
"V. c #DC9D6C",
"C. c #E88F64",
"Z. c #E98A65",
"A. c #F58363",
"S. c #E69266",
"D. c #E99265",
"F. c #E69369",
"G. c #E5996D",
"H. c #E89369",
"J. c #E59C72",
"K. c #E29670",
"L. c #D7A378",
"P. c #E6A47B",
"I. c #E5A97E",
"U. c #E8A57A",
"Y. c #FAC748",
"T. c #FAD543",
"R. c #FCC653",
"E. c #EECB73",
"W. c #F0D074",
"Q. c #F1CC76",
"!. c gray55",
"~. c #989898",
"^. c #B29E85",
"/. c #B79F88",
"(. c #BCA589",
"). c gray66",
"_. c #D19F80",
"`. c #D5A485",
"'. c #DAAC8C",
"]. c #D5AB8A",
"[. c #D7B08E",
"{. c #D9B08F",
"}. c #DCB493",
"|. c #D9B794",
" X c #C7AC8F",
".X c #EAAD82",
"XX c #E8AE88",
"oX c #E5B185",
"OX c #EAB286",
"+X c #E8B88C",
"@X c #E4BB94",
"#X c #EABC93",
"$X c #E5BE9B",
"%X c #EABD9C",
"&X c #E5B697",
"*X c #F0B184",
"=X c #E4BEA0",
"-X c #DEC39C",
";X c #E5C49C",
":X c #EAC59C",
">X c #E6C99E",
",X c #E9C89E",
"<X c #E7C296",
"1X c #F2C38B",
"2X c #E6C6A1",
"3X c #E9C6A2",
"4X c #E6CAA1",
"5X c #E6C9A2",
"6X c #E9CAA3",
"7X c #EACBA8",
"8X c #EDD3AB",
"9X c #EAD1A6",
"0X c #F2D5AE",
"qX c #F7D9AF",
"wX c #EED4B0",
"eX c #EFDAB1",
"rX c #F2D5B1",
"tX c #F6DBB3",
"yX c #F8DBB4",
"uX c #F8DBB5",
"iX c #FAD9BA",
"pX c #F0CBA9",
/* pixels */
"W W W w e v v n n v v v v v v v v v v v v v e q w v v v e e e w F R W W E E E E 7 7 7 7 7 7 7 D G E F R F F D F D D F R G R E W ",
"W E E F w e v N v v v v v v v e v v v v v v e q w v v v e w w F R W W E W E W W D 7 7 7 7 7 D R E F R F D D F F G R R R R R R E ",
"E E E R F w e n v v v v v v v v e e v v v v e q w v e e w D F R R D v v v v D R R D 7 7 7 D R E F R F D F G R R R R R R R R R R ",
"F E W E R F w n v v v v v v v v e e v v v v w q w e w w F R W D l v w w > w > w R R D D D R E F R R R R R R G F F D D D D D D D ",
"D F E E W R w n v v v v v v v v v v v v v e w q w w F R W W D e w w w w w w q w D &.R R R E F R G G G G G G G G G G G G G G G G ",
"D D F E E E w e v v v v v e v v v v v v e q q w F R W W R e e w w w w w > w q q > R !.).E F R F D D F D D D D D D D D D D F D D ",
"D D D F E W F w e v v v v v v v v v v e q q D F R W W D n w w w w w w w q q w > > R ).W F R F D D F D D D D D D F D F D D D D D ",
"D F D D F E W F w e v v v v v v v e e q w F R R W R v v w w w w w w w w q q w > , R ~.W R F D D D D D D D D D F D D D D D F D D ",
"D F D D D F &.R F w e e n e e e e d > F R R W W D v e w w w w g w q w w q > w > > R ~.R F D D D D D D D D D D D D D F D D D D D ",
"D A V V V V V C C C C C V V C C C C V V V V V V V V V V V C C V C C V V V C V V C V V V C ^ ^ C C C C C C C C C V V V V V B F D ",
"D V ^ ^ ^ ^ ^ ^ Q ^ Q ^ ^ ^ ^ ^ ^ ^ ^ ^ ^ ^ ^ ^ Q C ^ ^ ^ C ^ ^ ^ ^ ^ Z ^ Q Q ^ ^ Q ^ ^ Q ^ ^ ^ ^ ^ Q ^ ^ ^ Q ^ C ^ ^ ^ Q C D D ",
"F V ^ C ^ ^ ^ ^ ^ ^ ^ ^ ^ ^ ^ ^ ^ ^ ^ ^ ^ ^ ^ ^ Q Q Q C ^ Q ^ ^ Z C ^ ^ ^ ^ ^ Q Q ^ Q ^ ^ ^ Q ^ Q ^ ^ ^ ^ ^ ^ ^ ^ ^ ^ ^ Q C D D ",
"D V ^ ^ ^ ^ ^ C ^ ^ ^ ^ ^ ^ ^ ^ ^ ^ ^ ^ ^ ^ ^ ^ ^ ^ ^ ^ ^ ^ ^ ^ ^ ^ ^ ^ ^ ^ ^ Q ^ ^ ^ ^ ^ ^ ^ ^ ^ ^ ^ ^ ^ ^ ^ ^ ^ ^ ^ ^ ^ V D D ",
"D A B B Z | ( ( ( | | ^ ) ) ) ) | ^ ^ | ^ ) ^ |  .(  . . . . . . . .|  . . .(  .) ~ _ _ _ ^ _ _ _ _ _ _ _ _ _ ` ) ( ( x V x D D ",
"D D D 9 L 7X7X7X7X7X=X_.-.-.4.4.-.-.-.4.4.4.-.m.=X3X7X7X8XiXiXiXiXiXiXrXpX7X7X&XK.D.H.H.H.H.H.H.H.C.H.H.H.H.H.U.:X2X=XD S D D F ",
"D D 9 R L 2X2X2X2X].-.-.-.-.-.4.-.4.-.4.4.c.=.=.n.$X2X7XuXuXuXuXiXiXyXyXpX3X:XJ.C.H.D.D.H.H.C.H.H.D.D.D.D.D.D.D.U.:X-XD D D D D ",
"D 9 R W K 4X>X4XI.y.=.=.=.=.-.-.-.4.4.-.=.=.=.-.;.N.;X9XtXyXuXuXyXyXyXyXyX6X:XJ.H.H.S.H.H.H.H.H.H.H.C.F.S.D.D.D.G.#X;XD D D D 9 ",
"9 R R D L 4X4X;Xy.*.=.=.=.=.=.-.4.-.=.-.4.=.=.-.-.-.$X>X0XtXtXuXyXyXyXyXuX8X2X.XS.H.D.S.S.S.S.H.H.H.H.S.S.S.D.D.H.*X|.D D D 9 S ",
"R R D e J 6X4X|.=.=.=.=.=.=.=.=.=.=.=.4.3.=.-.-.-.=.}.>X;X4X9X8XtXtXtXtXtX7X,X:XI.H.D.C.S.S.S.S.S.S.S.S.S.S.S.S.H.XX=XD S 9 S S ",
"R D e e K 6X>X|.y.=.=.y.=.=.;.-.=.4.4.=.-.3.3.-.=.N.;X>X,X:X4X4X4X9X9X7X9X6X,X4X3X#XOXI.U.H.S.C.C.C.S.S.S.H.D.S.G.%X;X9 9 9 S R ",
"D e e w N 4X4X4XN.=.=.y.=.4.=.=.-.=.=.=.=.=.3.c.M.<X<X1XI.F.V.OX>X4X4X>X>X6X,X>X:X<X;X;X>X,X<X<X#XOX.XJ.G.G.J.U.$X4X|.S 9 F R R ",
"e v w w I 4X4X4X:X].v.v.v.n.N.M.M.L.`.`.'.'.&X;X,X,XI.F.S.D.D.S.oX>X6X4X>X<X`.v.c.y.c.c.M.@X4X4X4X4X2X4X5X5X4X4X7X9X8X9 F R W D ",
"e w w w J 4X>X<X#X@X#X<X:X3X,X,X2X4X6X8XrX8X2X2X>XOXD.S.S.S.S.S.F.@X4X2X{.c.=.=.=.-.3.3.=.=.'.>X4X6X4X4X5X4X9XwXtXqXrXF R W D e ",
"w w w e L P.K.K.b.F.S.G.I.<X>X>X6X8XtXuXuXuXtX3X,XG.S.S.S.D.S.S.S.oX6X2Xc.=.=.=.=.3.4.3.=.y.=.}.4X2X4X4X7X0XtXtXtXtXwXR W D e e ",
"w w w w m F.F.F.S.C.S.S.S.F.#X<X9XqXtXtXtXuXtX8X,XG.S.S.S.D.D.S.S..X4X;X=.=.=.=.-.4.-.3.-.=.3.v.2X4X4X6XtXtXtXtXtXtXwXW R e v w ",
"w w w w m F.Z.S.S.S.S.C.C.S.S.<X9XtXtXtXuXuXtX8X,XP.S.V.S.S.G.S.J.<X4X2XM.=.=.=.-.-.3.=.=.3.=.y.@X4X4XqXtXtXtXtXtXtXwXR D v w w ",
"w e e w m F.S.S.S.S.S.C.S.S.S.P.:X9X9X9X6X9X6X4X>X<XoXoXOX#X#X<X;X>X>X;X2X].n.t.-.4.t.-.3.=.3.y.$X2X8XtXtXtXtXtXtXtX8XD e w w w ",
"w e e w m F.S.S.S.C.S.S.C.S.S.F.<X,X,X,X>X-X X(.^.^.^.(.^.^.^.^.(.^.^.^.^./.(. X|.'._.t.t.-.4.M.2X4X0XtXtXtXyXtXtXtXwXe w w w w ",
"w w w e ! G.S.F.D.F.S.S.F.S.C.S.#X:X4Xu.H 8 $ o X   .     + . .     +   . O O * 8 J ^.2X=X=X%X2X2X6X7XuXyXyXyXyXuXuXrXw w w w w ",
"w w w w K <XOXU.J.F.F.F.Z.S.S.V.<X(.k $ X o + + . . 4 @ + + o % % + + + . + . 8 O % o b (.2X7X2X4X2X4X8XqXyXyXyXuXuXwXw w e e e ",
"w w w w J 3X>X6X;X<X#X.XP.U.P.$X%.* % . o o o +   O u h = @ O * k 2 + + + + 8 % % + + % 8 w.7X2X2X4X6X4X,X7X7XpX6X9X5Xw w e e e ",
"w w w w J %X&X:X6X;X4X4X2X4X7X&.* o % d t ; = - y h = : y s d 3 % . % . +   p   % + + o % % q.3X6X6X6X,X:X#X+XOXOX#X&Xw w e e e ",
"w w w w H t.=.c.'.4X4X4X4X4Xu.$ + + + + 5 4 y 4 y . . % O # O + . + + . . o f $ + + + + % % 2 (.2X6X;XI.G.S.D.D.D.F.V.w w w w w ",
"w w w w A -.4.=.y.[.4X4X4X-X8 o . . + % + o % o y % o % % f . + + . . b   . = c p y y @ + + 2 g -X:XI.D.D.D.S.D.D.D.b.w w e w w ",
"w w w w z -.4.4.=.c.:X>X2X&.% o o o + + + + o + u + . % * } X + . . $ b   + .   + + . + . % + O %.%XG.D.D.D.D.D.D.D.S.w w w w w ",
"w w w q H -.4.-.-.4.}.4X2X, % . + o o o . + + . f % o + * >.& @ % . o . . . . . . + + + + + + % g ;XG.D.D.D.D.D.D.D.b.w w w w w ",
"w w w > H -.-.4.=.c.@X>X(.X X & + o o o o + + % p . o . O [ = b % o 6 o % o . % + + - 5 2 + + + $ |.oXF.S.S.D.D.D.D.b.q w w w w ",
"w w q D A -.4.c.N.[.;X6Xr.X $ & u + + + + o o y & % $ % % O O #.z 2 8 v < o . o @ i 5 + . + o o   u.4X<X+XI.J.S.s.S.b.D > w w w ",
"w q S R J =X>X-X2X5X4X5XU $ % + = y + o +   - a   + + + O . O $.d.j $ @.< 2 o & h @ + + o o o 1 o +.4X4X>X6X;X:X<XI.L.R D q w w ",
"q D R R I 5X>X-X5X5X5X6XI % + + + h @ o o = f + & + $ 3 8 O O :.p.<.a 8 $ + + h @ + + + + + o + % Y 6X6X4X2X<X|.@X>X$XW R D q q ",
"D R R !.O.iX0X7X5X5X5X5XI % % o + - 4 + u u + . x X % d #.  : 6.h.f.:.&   . + p + + + + + + 1 + % Y 5X4X:X`.c.=.y.v.}.W W R D D ",
"R R ~.~.O.iXyXyXtX7X5X7XI $ % o + - p u 5 + + 2 $.. $ a Z.t ! A.1.f.g.x @ . 2 p o + + + o + o o 2 Y 3X;XM.=.=.3.=.=.-.7 9 F R R ",
"R W ~.~.O.iXyXyXyXtX8X5XU % % o . = u + o O + z :.O % M 2.! <.1.f.A.a.:.O . + f @ + + + + + . 2 o Y 6X'.=.4.3.3.=.-.;.7 7 7 9 F ",
"7 D !.!.O.uXyXyXyXyXyX7XI $ o o . u 5 o o O . o.$.X : >.A.2.1.1.f.g.h.5.- + + 5 i = + + o o y . % Y 9Xv.3.3.=.3.=.-.;.7 7 7 6 7 ",
"7 6 D W O.uXuXuXtXyXyXwXI * + + O f y 4 5 # ; 5.z # ! f.f.1.1.1.f.d.g.5.l = O + = i h 5 5 u 5 o % Y 9XN.=.=.=.=.3.3.;.7 7 7 6 7 ",
"7 6 D E O.uXuXuXiXyXiXrXI % + + 2 u # @ u x s #.# x g.f.1.1.f.f.l.g.f.} a * x + + + + = @ p 3 + % Y 6X'.t.t.y.y.c.N.u.7 7 7 6 7 ",
"6 D R R &.uXuXuXyXyXtXwXI % + + 5 @ + o % j 0 z f A.f.g.1.f.f.f.l.f.:.0 + & 5.d + + + + + y 5 + % Y 4X6X;X$X=X3X3XpX5X7 7 6 7 7 ",
"D R R R O.uXiXuXyXtXwX9XI * + + + + + + & + O x <.f.h.l.g.f.l.s.f.<.a } ; ! A.c + + + o = i y + % Y 6X4X5X3X3XrXyXyXwX7 7 6 7 7 ",
"R E E E T rXrXwX9X5X5X5XI % o o + o + 3 V 3 - >.1.d.k.j.h.g.R.p.f.7.<.5.: :.<.t % o o & y + y 2 % Y 6X6X9XwXrXtXtXuX8X6 6 6 6 6 ",
"W W E E J 5X6X4X5X5X2X9XI o % % + + + o X.5.~ A.1.2.z.x.l.g.l.g.g.f.A.#.# ,.M @ = O o f @ . + 2 % T 4X6XeXeXiXuXuXtX8XD D D S D ",
"W E W !.m oX&X<X2X>X2X5XI % + o + + . 2 z 1.2.f.d.a.l.x.Y.g.d.a.l.f.d.6.0 ! O $ M & = t o + + @ % T 3X8XtXtXtXtXuXtX8XF F R W W ",
"W F n n m S.F.V.+X;X;X6XI % + o + + . 2 P 1.1.1.d.k.d.l.8.8.a.a.l.f.g.h.,.a $ l 5.; 4 5 o + + 2 o Y 3X0XtXtXtXuXuXtX8XF F D R W ",
"n n v v m S.S.S.S.OX>X4XI % 3 3 O + + + o.1.f.1.d.R.a.1.Y.8.T.j.l.d.d.z.p.<.x 2.A.r 5 0 + + + + o Y 6XtXtXtXuXuXtXtX8XF F D R W ",
"v e v v m S.C.S.S.F.#X4XI % % ; j @ o + ,.f.1.1.1.d.d.f.j.9.9.T.d.h.p.R.l.f.1.d.<.8 @ f + + + + 6 Y 6XwXtXtXuXuXtXeX8XF D D R W ",
"v e v v m S.S.S.S.S.P.4XI % 2 o = p 5 4 ,.d.f.a.1.1.h.g.j.9.9.T.d.a.k.8.Y.d.f.f.,.@ @ f s & 2 + 6 Y 4X5X9XwXrXuXtXtX8XF D S R n ",
"v v v v m S.D.D.D.D.P.6XI % + o + u 5 2 ~ f.f.k.g.f.j.Y.8.9.9.T.a.2.8.8.T.f.f.f.` + y 5 + 3 % + 1 Y 4X5X5X5X5X6X9X9X9XD D D R n ",
"v v w v m F.Z.S.C.S.P.4XI o @ % @ = % o d <.1.k.k.d.R.0.0.0.0.T.Y.d.T.8.Y.g.f.s.0 @ = % % + @ % % Y 5X4X2X2X2X;X>X>X-XD D F n v ",
"v v v w L %XXX.XP.oX<X2X(.q.w.q.w.q.q.q.r.L..XE.E.*X1XW.W.W.W.W.W.I.W.W.1XU.*XL.e.w.q.w.w.w.w.w.q.(.4X:X$X+X@X:X>X>X-XD S R n v ",
"v v v v J 5X4X;X;X$X}.].'.'.&X;X2X4X4X:X>X2X4X2X2X5X4X2X2X6X6X2X6X6X4X4X6X4X6X2X,X,X,X6X6X2X,X6X4X>X%XJ.S.S.S.P.>X,X>XD F n v v ",
"v v v v J 5X2X$XM.t.=.=.3.=.=.c.M.&X2X6X>X4X4X6X4X4X2X6X4X4X2X4X,X6X>X6X4X>X6X6X7X9X9X3X>X>X;X4X4X@XV.S.S.S.S.S.U.,X;XD F n v v ",
"v v v v J >X`.4.3.3.3.3.3.3.3.3.4.=.n.|.2X2X>X2X6X2X6X,X4X6X,X4X6X,X4X2X6X0XqXqXyXqXqXqX7X4X2X7X:XV.S.S.S.S.S.S.G.+X-XD n v v v ",
"v v v v L N.*.*.*.*.*.*.*.*.*.*.*.*.*.*._.[.}.[.[.[.[.[.[.[.[.[.[.[.[.{.$X$X$X%X$X$X;X$X;X$X}.}.XXv.i.i.i.i.i.i.i.M.[.R n v v v ",
"e k ....[ [ [ [ [ [ [ [ [ [ [ [ [ [ ] ] [ ..........{ ..] ......{ ..........[ ..........[ ..] [ X.[ } { { { { { { { ....X.h v v ",
"e j ' ' } | ' ' ' | ] ' ' ' ] ' ' ' ' ' ' ' ' ' ' ' ' ' ' ' ' ' ' ' ' ' ' ' ' ' ' ' ' ] ' ' ' ' ] ] ] ' ' ' ' ' ' ' ' ' ' s v v "
};
