/* XPM */
static char *_1100_2bac5d0a06ddf2e1e1ae6f03d30ef5409f2705e84b91506608874e659b171a60[] = {
/* columns rows colors chars-per-pixel */
"64 64 14 1 ",
"  c #4A4C58",
". c #4D4F5B",
"X c #474854",
"o c #444551",
"O c #312B3A",
"+ c #2C2535",
"@ c #363140",
"# c #51535F",
"$ c #413F4C",
"% c #3B3846",
"& c #27202F",
"* c #585864",
"= c #605F6A",
"- c #696872",
/* pixels */
"+OOOOOO@%%@%%%@&+++OOOOO+&+@O++++O+&+O@@@O@@@%@O+&&O%OO@@@@O++&&",
"O%$X  ..#*###X@+$Xooooo%%+OoXoo$$%@&OX.XXX oX  o%O&%  ooX XXo%O&",
"O% *##**===--*OOo.  XX  $OOo##   o@+O.*#### #.#.o%&O#*#  ####$%+",
"@X#*#**====--#+OX   XXX XOO$##... $+O.##### ...# $&@####.#...X$+",
"@ ##**====---#+O .  XXXXoO+$*#... oO+X##...  ... o+@#*##..... oO",
"@ ##*=*====-- +O.#. XXXooOO.*##.. oOOX#....X     o+%###...    $O",
"@ #***===----.+O #. XXXooOO.*##.. oO@.###.. .    oO%###... . X$+",
"@X#****====--.OO #. XXXXoOO.*##.. oO@.##### .    oO% #....  XX$+",
"@X#***====--=XO+X#. XXXXoOO.*##.. XO@.####... .. $+@o.#.     X$+",
"@o.***===-=*.oO+%X.XXXXo$OO *#... $OOX ##. .   X$%O@%$X   XXo$%+",
"@$oooXX..X$$$%&+@%$$$%%%@+@XXXo$$%@+O@$$$$$$$$%%%@OO@@%%$@@@@OO&",
"&O++++&&++++++&&&++++++++++O++OO++++O+++++++++O+++++O+++++O@O+@+",
"+@%%@O&&O%$$$$%@&+@%%%$$$%%@O&%X$$X $O+%@O@@%%%$%@O@$XX$$o.****X",
"+$ooX$&O.*###..$&@$XXXXoXXoX%+$#####X@+$#*  ##.# %+%#===*==---*X",
"+$oXXo+@##..   $&@XooXXX  X.$+$....  @Oo*==**#.##%+$====*===--*$",
"OoX  o+@##.$$ X$&@X%oXX  X .$+$ oX.  @O ****##..#$+$==******==#%",
"@X ..XO@.. $oXX$+%X$oX .. .#oOo.X #. %+X**###  ..o+$=***###**=#@",
"Oo### O@ XXXXXX%+@o   .#..##$+o....  %+$****X$ # $+%#*######**.O",
"+%  .X@@oooXXo$%&O$   .#.##o@+$..   X%Oo.##.XX  o@+@X###....#.$O",
"&O@@%%OO%%@@@@O+&&O@%%$$$$%@+&@@%%%%%O+%@@@@O@O@@+&O%%$%$%%%%@@O",
"&&&&&&&&&&&&&++OO@@O++++&&+OOOO@@@OOO@OO+&&++++OOO@O+OOOOOO++++&",
"O%%%$oo$%@+&@%$X   Xo$%@O+@%$oX.   XXo$$@++@$$$$oXo@O$ooo$$o$@O+",
"+o. ...  X@+$X.##.   Xo%@O$oX .##....#Xo%OO%XXXX # @OX   ooXX$%O",
"+$#. X    @+o**##.  XoXo@Oo #..###... . $OOoXXXX # OO  . o  XX$O",
"&%..XXXXXXOO  .#..  ooXo@O *###...... ..o@OoXX   .oOO .  o   XoO",
"&$..XoXXXXOO.#X#..  XXXo@O ##.......  ..X@OoXXX .#XO@ .  XX  XoO",
"+o. XoXXXoOO *. ..  oXXo@O #... ....  . X@@oX   .# O@  ..    XoO",
"+o. XoXXXXOOX##X    oXXo@OX#.....   X...X@@oX   #*X+O  .#  . XoO",
"+o.XooXXXXOO$.#.X   oXXo%O #...... XX.. o@Oo   .#*o+O #... o  oO",
"+o. XooXo$OO ###  .XoXoo%+o#.......XX  X$OO%X...*#$++o..  ..#.X+",
"+$o$$$$$%@+OX... oo$oooo%+%..    . XX$$%%OO@$XX #X%++%oX X  XX$+",
"&OOO+OOO++&&@@@OOOOOO@@@@+%$%%%%$$%%@OOO+++OOO@@%@+&&O@@OOOO+OO+",
"&&&&++&+@@OO+&&&&&+++++++&+OOOO++&&+OOO++&&+OOO&&@@@O&&+OO+++++&",
"+%$o #o$X  o%&O%$o$oXXX$%+O$o$$$@&O$X  XoO&@$oo@+o .o+O$o   ..$+",
"@.=====#***#$&%X ...##**o+@XXoXX$OOo#....$+$XXX$+o#. O@ .##***XO",
"@#===*****=*$+%XX   ..##$+@oo  Xo@Oo..   $O$XXXo+o#.XO@*=*****XO",
"@#===***# **o+%XXXXX .##$+O .   X@Oo    X$O$ XXoOo#.XOO*-=====.O",
"O#--=*#*****o+@oXXXXX ..$&@..... @Oo   XX%O$   $+o#.XO@=------*@",
"O.--==***=**X+@$XX X  .#$&@####..%+o XXXX$Oo...oO$.. O%=------*@",
"O.=-=**###*#$+O%oXoX .. $&%***##X@+%X XXX%O$  .X@$*#X@@*------*O",
"O$$$$$$%%%%$%++O@@O@%%%@O&O%$$%%@+&+@%%%@O+O@@%%OO X$@+%o .  o%O",
"+OOOO@@%@@O+O+OO++++&&&+++++++++&&+&+&&+O+&+O@@@OO++++&&&+&+&&+&",
"@%oo .##.X$OO%$$$$$%@+&@%$$$o$ooXoo$%%$$%@OX#*###$&+@%%%%@@@@@O+",
"%o.==----= @O$ooX . $O&$X ...###**##... oOO*-==**.+O%oXoo$$$$$@&",
"% =-=-----#@O$oXX .. @&$##* %  ...... ..oOO#-=***.+O$XXooooooo%&",
"%#===-=---*@O$oXX  ..@&$##. o    .  X .#oOO.-=*##.+O$ Xo%ooooo%&",
"%*==-------%O$oXX X#.@+o.    XXXXXXXX .#oO+o#. XX%+OX XXoXoooo%&",
"%#==-=----=%+$oX X ..@+o. XXXXXoooooX .#X@&OOO++++&OX   XXooXo%&",
"%#*==------%+$X X .#.@+o  XoooooooooXX # @&@@%%@@O&OX     oooX%&",
"%#*====---=@+oXXX   XO+$  XooooooooXXX ..@+o#. Xo$+OX  .  ooo %&",
"@.*===----=O+ooo ...X@+$XXXooo$$$oooXX.. @+X## Xoo+O .... Xo$ %&",
"@ *=====--#O+$oX ###X@+%XXoooo$o$oooXX.X$O&X##.Xo$&Oo###. X$X %&",
"@X*=*==--=#@+%XX .##oO+%XXXoo$ooooooXXX$%O+o##.XX$&+X*####.. $%&",
"@o.#*=====.@+@$X ##X$O+%$$$oo$ooooooXo$%@+O$#*#. $&Oo ##  ..o%@+",
"O%$$$X.X  XO&O%%$$%%@++@%%%@%%%%%%%%%@@O+&&@oXo$$@&O%%%@%%%@@OO&",
"+++++++++OO+OO&&&&&&&&&++++++&+&&&&&&++++&&&++&&+++++&&&&+&&+&&&",
"&@$o$$%O+&$#*X&OOO@@@@@@O+&@%%%%@O&&O%o.#.X$$@+&%##X@+&$$%+O$$@+",
"+ =*### OO#-=o+%oXXXXXo$%@+%oooo  @&$*------=.@O ---*O+ #XOOoXoO",
"@*=*####@@*--$&$#. XXXXXX%&@XXXXX.$O.----=-==*%O#---=@O.# OOoXo@",
"%*==*##.%@#==o+X*#.    XX$&@   XXX%+ --====***@@*---=@O .XOOoXo@",
"O*-===* @O --o+o**#....  %&%..    $+$*-=*****#OO*---*%OX XO@XXX@",
"+#--==*.@O.--X&o==***### %&%##....%+%***=**#*.@O*--= %OoXX+OXX %",
"Oo**#. oO+ ==X&%X Xo$X X$@&OX... X%+%X#.##*#X$OO.*=* O+$X$++o X@",
"&@%@O@++&&O%%@&&+++&&&+OO+&&O@%%%@@+O@@@@@%@+O++@$$%@&&&@O&&@%O&"
};
