/* XPM */
static char *_1834_fedb881e7effd3f0834e2668a5ac5838c8a8894e63fc80220c90eb3edf9957a6[] = {
/* columns rows colors chars-per-pixel */
"64 64 21 1 ",
"  c #ECECEC",
". c gray77",
"X c gray",
"o c #FEFEFE",
"O c #FBFBFB",
"+ c gray95",
"@ c gray72",
"# c #EFEFEF",
"$ c gray96",
"% c gray97",
"& c #E9E9E9",
"* c gray67",
"= c #B2B2B2",
"- c gray88",
"; c gray90",
": c #A4A4A4",
"> c gray85",
", c #CECECE",
"< c #9A9A9A",
"1 c gray54",
"2 c gray45",
/* pixels */
"2<=@@@XXX@=@@@:221=..,..@@@@@@.11,>,.@.,,.....X<2:X,>..>>,>>,.X:",
"*>-;&    &;;->;=1>$#  -->--->>-*X $$#  &#+$$$+&=X-&&; &    +#& ,",
"=>; ####+OoooO-X:;o+$ +ooOO$$ .=.#$#$ ;+$$$++$+*.&O$ &#& ++#+#&>",
"*-&&###+$Ooo%$-*=-%++;$$-# &#+X*X +#+# #$++++% *X;o&-+%+  ++%O+,",
"=&+&& $%%OOoo%>:=&%$-;$#-#+ # X*@&$+$+++%O%O%# =X o; oOO+#$$$o#.",
"X %#&#%%$O#+o >== OO#++%%#$$%&.=.;%OO$+##$O%% #=X&o$ooO$$ & & ;X",
".;$##+# & ##  #,:;###-,>>>>>,,,:@-;&+# ##+$;#$;@.&;>;#;>- # ;--.",
"=,,,,,...X.,,,,=1*===**=:<:*:<1221:=X..X..X@@=.*:.=@@*:=X,,,..,*",
"X@===:121<1<:*==@X@==@@11<=,,..=*XX@=:*<*.=@@@X=*XXXX@:<=..X==.X",
"&-;&&;>:X---;  #&;&## -*X&& #---;;&   >*.->; ;>;###$%o =. #++  $",
"##++;  :=;%   #++##+$%#:@&$$%Ooo;$o%$o#<= ooooO&+++%Oo$*X  %%%+&",
" $%+>-#*=-$#&&##$%$;#O+<=#;;OoOo;#o+&$ <@-$OOOO;###$%O#:X#$#   -",
"  ;++#+**;%%#-#+%O%%%%+<= +#OO$$O%#$$%$*:;ooooO$+++%%%#*X$+&&#++",
" ;-#%o :@&++O$++#$oOOo+*@;+%oO%OO$$oO%+=:>oOOOO$+#+%%%%@X#$##$$$",
"+# #++-*.# ;------+#+%&@:> &;&&;;;;- $;=:> #+#+# ##+$+&@@;%+ #++",
"@..@==@11*@XX==.@*=..=<12<*=X.@=*::<<<1221:X==@=*@.XX=*<1:@.....",
"1<<*@@@X@**=**:1<****=:<*===*:*<2<@XXX@*=======<*,..,,..XX@@=*<2",
">----&;&# ;;&+;@=-; #&+& $+ ;-.:=-;;;-;+#+;;$%-=.#  & $++$$+&;-:",
",>o%+OoOooOooo&:@;$OO#%OO%%$+&><X-oO+&%%oo#;#$&*X  &&#+&&   ;;;:",
",>ooOoo%%$+$%O&:X&O%$%%$$%$%$+-:X-&%$+&;+;;OO%+*@$oO%$#& #+# #;:",
",>oO%OO$+#+$%%-:@&O%#;#++O# +$-<X--$+ &;$ ;$+$#=@+%$%+& #$%$++ *",
".>o%$OoO%$++$$,:*-oOO%+++o;;+#>:X;oOO$+%oo##$$+=X#O$o%#%OOO$%O =",
"X-  # #&&  ;; >*X &&&  &;& ;-;,*.-;--  -;###+$-*@;  #+$+++#+$%-=",
"<@X@@@@XXX@X@=*1<@X..XXXX.@@@=@11<<:===*=X...=<21=@**@XXX..XXX*1",
"@=*::*@<1:=X..X=@*<<<<*121*@XX.@*==@==X<2<:*X.X=*=*====1<****=@@",
"&#+$$+&X= ++$# ++#&->;-==-# #+##& &&;->=:>&; ++####;;+-X*,;;&#&;",
"#+++$$ @*&+###;&#+$OO$;@=+O++%o%#$##oO-X:-%#; ++$%O  %;X:-+%O$# ",
"+$$+&$-@=;##$#;&+%%%%#-==+%%#&%%;; &+O-@:;$ &#$$%+ #%O;X:> $O$# ",
"++#%##>*X;#++## %O%$%%>==+OOO%%; $%#$%-*@&+###%%%+;#+$;X:-$&## &",
"+%OOoO-=.;%$++O$OoO%OO>@=#%O++oOoOO#+o;*X#%%$$OO$$oO&o @*-+ #+# ",
"&;;;;;;.X&--   #->>-;& @@&& ###+++ ; #;=@##&------;&&+#@= $# #++",
".,,,.,>:1=*=.X@:=@===.><:>,..X====@XXX.1<,,,..,.@@X.X@X1<.XXX.,,",
"=,X@=*===@*=*=@1@...X@@==@@@@@=12<<:=**::@@@XX@12<**<<:=@X@===:2",
">;-;-;>>o% # %#*,--;  ;--;&;& >*X->>-;;  -;;&##==-->;;;&+++$$#>:",
">#$+OO%$%$%O%%#:@&%+%OO$+O%$$+,<.;oo$#+$#+%%%%%=X+# $+##$  #++;@",
">  &+###+#$+++ :@;O%%#$++$$+$+><X;o+##++# #%O%O=X#+#$+#+$ & ##;@",
">&##+# #+$$##+&:@&%oO>&$$$$$$$-<X;oO++$+++ +OO%*X %+$+#+$# ## ;=",
">#+  ###### &&&=:;O%O#$OOO%O%+><.-Oo%+++$O$$Oo&:.;oOO%%%%O$+  &X",
">-;>>-->>>;;--;@:,>;&## +%$$#-,<,#&&;;&;;;##;->*>;&-#+%#;$#;& -=",
"@X=====*:::**:<11**=...X==@@@=12:.==@X...X.,X*:2=-X*@*=X@X.X.@<2",
"@.....-@*,X@..XX..X=***12:@=*==*@@@X*<12<>....X==@*===:1<@@.XXXX",
"+# -;;&XX&&&; +$ $%%$$;*X&&&;  ;&+$$ ;-@.&; #+$%%$$%oo$X@&$; $$+",
"$oo$oo&=*&#OOooO#$oo$+ :X&oO%#+#&#+++$&*X#%#$$+$$+%%%%%X*+oOooO$",
"%OooOO-==& #OOO#+#$O%#&*= %+$--&&&;;&+>:@+$ # ####$+##%X*$$+OOO%",
"ooOOOo;*@;+%oO$++#+$$#;*=&++++#&&## #o>*@&%  +##$$%$##$.*$+$O%oo",
"oooooo#*X $$$%%O%$$   ;*X-%%##%$;$%+%o *X+$+%$++$%o%$+#.=&$Oo+$o",
"$###  +=.$&>>;&&  &;; ,<@>>>-;  --;   &=@ #$OO%$oOOO%%+.X>O++O$$",
"@@@@XX*22*@..X@@@==@=*122<:<:@=<:@==**:11=.XX.@*X,.,,,@<:.X@@===",
"=X@@@==*==*==@:11<=@@...X.,..X*11X.X@XX..X...@:<1<=@XX@@:=@@@:12",
",;$#&+%%++#+$$#=*-#  ##&&-;-;--@*;+++$%+$%$+$%+.@&+#$%+&;#+%$O;*",
"X&%%%%+$%%O%+#%@*###O$##OOOOO%-X@ oO#OO%O%%$+$%.@+$$%%++%OOOOo;=",
"X#$#+  +%%%+#++=*&$ ##& $O%$++-=@&o++O$$++$OO$$.=#O%%+ #%OO%%o =",
"@#++ &  +%+#$#+@* $+&& #++  & ;=@#%+%$%+#+$$O%%.*#$++$+ +%O%Oo#@",
"@#+ &&  +$#+###@=+OO# +$$##+#$-==##%o$+ # +$O%OX* %%OOoO%$$O$O#.",
"*;$ -- #$$+$+#;==-+++++$%$ ;#+-*.&  #%$++ $%%$&==-$%%%  ###;;+ X",
"2<**::@X=@@@@==<1=***=@@*=@=@@<2=.X@@=*@XXX@@=:1<=*=@@::***@X.@1",
"<*@..XX<2<@XXXX,X.X**=.<2<@XXXX=:==@X=:1:X@@XXXX...@*.*1<@X@@@@@",
">;#&# &=* O%+++#;;;&&;-*: %%$+%%%%+#&+ @@#  O+$+++ ;; >*@+++++ &",
"%ooo%O;**+$OOo+  $o%oO>*=+$$ & +ooOOoo ==+&&%oooO%oo#+ @*$ $oO  ",
" +$$$%>** +%%%   #$#O%,**+$$##&+OO%++o-=*++#+OO%+#$%;&-X: -#OO$$",
" ;+##$-=:&$$O%+##$o%+#>** +$++#%OO%$$%&X:+$+%O%%+$$$$ -=:  %%%O%",
" #;;+$&@:&$$OoO$ooooo$>=*; #$%$OoO%%%%+.=OOOOoO%%$%$+O =< %OOOOO",
" #&;&>>X*;# # -;&;-,X,,*=>& #+#$$#   # =* %$ & &&&;;&;;.<-& +$+#",
"*....,,:1X@@X@@XX.@:***11***=@XXXX@@X.*21=,.XX...@=**@.:21<****:"
};
