/* XPM */
static char *_925_92797cbb5d7ed35a3f6ea4bb7bb117ebbece75273739bf863a3f140885f298a8[] = {
/* columns rows colors chars-per-pixel */
"64 64 21 1 ",
"  c #54453B",
". c #42302B",
"X c #6F5749",
"o c #4A342E",
"O c #3A2521",
"+ c #5D4D43",
"@ c #695144",
"# c #3F2A26",
"$ c #524136",
"% c #58493F",
"& c #755E4F",
"* c #624C3F",
"= c #472D28",
"- c #7C6554",
"; c #523931",
": c #4D3C33",
"> c #615247",
", c #331E1B",
"< c #5A4638",
"1 c #66584C",
"2 c #866F5D",
/* pixels */
",O===o;;$;o;;;o,,=;;$<;$;;$$;o;O,.o.#O#....###O,,=;<$;;<<$<<<<;=",
"O;<<**@X&&&&&&X;O*XXX&X&-----&@=#:$<$$;::$$$::oOo@&&X&XX@@X&--@<",
"O;<**@@&--2222-;#@&XXX-2222222X##$<$$$;$$$$;;$:O;X--&XXX@XX&-&@<",
"#<***@X&-22222X==*&X@X------22*O#<<$<<$;$<$$$$:Oo@-X@@XX@@@X&&X<",
"=*@**@&--2--22X#=*XX@X--X&&&22*O#<<<<<<$<<<<<$:OoX&@@X&X@@@X&&X$",
"o@XX@@X&----22@==@@X@@&&&&&-22*#.%>**<<$$$$<<;:Oo@&XXXXX@**@@X@o",
"o@&X@XXX&&-&&X@;=*@@@**@@@@X@*<##$**<<<$::$:$$:Oo@@*@X@***<<***=",
"=$<$$$$<$$<<*<$oO=oo=##==##=##O,,O##=.==###O###,Oo=======o;oooo#",
"######O,O#OO######O###O,O=;$$;;;o;ooo==OO#O###OOO#O###O,O...###.",
"$:$$ $:O. %$$$$$$$$   :O;X&&XXXXXXX&X&@=#<%<*<$$$::$$$$O#$$     ",
" %%%   O.+>+ $  %%  %%$O;&2-&-22---&&&&=#*1@***<<$:$<<$O.  %%%  ",
"%+++   ##+11+   %+% %% O;&-&-2-2-&-&@XX=#%@>**><<$$$$<$O. %   % ",
"%%%++%%##>&&1%%%%+++++%#;&-&---&-&XXX@@=O*1@****<<:$$$:O.+%% %>>",
"+% %>>%O.1&111>% +++++%#o&-&--&&&XX@X@*=O<1@**>*<$$$$$:O.>>+++>>",
">>%%++ Oo>1>++%$:$+%++ #=@-&&XXX@@***@*=O$**+*<*<$::;::O.>1>>>>+",
"ooo...#,O.oo.##.##....#,,=oo;;;;==##===,,O#.....#####OO,,.::o:::",
"O=#====oo=###==O,OOO###O###OOO,,,=;;;;;;;;===o=OO####....####OO,",
"<*XX@XXXX@****<#O$%%% %%   $:o#,o&--&@&-&&@*@@<##$$$:$ $$::::oo,",
";@2-&--&&&XX@@*##%>>+++++%%% :o,;-22------X@@@*## %%   $$$$$:::O",
";@-----&XX@@@@<#.>1>>>+++++%  :O;&---&&X&X@XXX@=.%+++%%  %%%  :O",
"o@----&&X@@@@@<O.111>+++>1>%% :,o&---&XX&X@X@@*=.%%+++%%+++%%%$O",
"o@--&&&&&X**@*;O#>&&111>>1+ % o,;&22--&&-&X@@**=.%+>>>+>>++++% #",
"=*&&XXXX@@@<<*;O.>11111>%++ $$o,;X&X@&&X@XX@@*<## %+++>+>>++++ O",
",o;ooooo;oo=###,#o:o:ooooo.##OO,O====oo=;;;;;o#,,#.##..ooo...o#,",
"OOOOO#OO,O##.##.#OO,,OO,,O#=o;;;===ooo=O,##==o;;o====o=O,,OOOOOO",
"::$$ $:OO$  $ :$$$$$$ :O#<<*@X&&@@@&XX<=O<**<*@XXXX@@X@o,.:::::o",
"$   % $OO$    $$  %++%$O#***@X&&XXX&-2Xo#<@*<*@X&-&X&-Xo,o$  $::",
" %%+%+$OO$+++%$$%%%+++ O=**@@@X&@@XX&-@=#*X@*@XX&&&---Xo,o$   $$",
" %+>+>$O.%1>+%%%%%%%>1 O#*@@XXXXXX&XXX*#=@XXXX&&&-&---Xo,:%   $$",
"%>>111 O.%&1>>>+%%%+11 ##<*@*@XXXXX@X&@#;X--&X&&&-22---;O:+%++% ",
"%%%+>+$##%1>>>+% $: ++ .#$****@@X@@*@&*=;X&X@**@@X&----;O$+%++++",
".......,,.##o..#OOOO#.oOO=ooooooo===o;o,#<<$ooo;;;$$<<<O,....o::",
"##OOOOOO.#O####,###.###OOOOOO#O,,=##=====#====oO,OOOO,OO##OO##O,",
"o$$::$::% %%  $O.%%   $$::::::.,;X&XXX*@@<<<<**=#:;o::o:$$;:$:o,",
"o %   %%%%%%% $O.>1>++%%  $:$$.,$-22-X@@****@**o#<<$<$$<<$::$$oO",
".$$$$$  %  % $:O.+11>+% $  $$$o,;-2-&XX@***@@**=.<<<<<<<<<$:$;oO",
".::$$$$$   $$$:,.+111% %%  $ $:,;&22-&XX@@**@@*=.<**<<<<<<<$$:oO",
".::::::$$$$:::oOO+11>+%+%%   $o,;&22--&XX@@*@@*#.%@>**>**<<<;:oO",
".::..ooooo:oo..O,$+%%%%    $$:.,$@&-&@@**@@*<<$#o >****+<<<$::oO",
"OOOOOOO,,,,OOOO,,OO#.....####O,,=;;;oo;;o=oo=#O,#o.#....#.###OO,",
".......##oo...oo..####O,,o;o=o;o;;;;o==OO###..o..######,,#O##.oo",
"%%% % :#.+1>++>>%    $:O;&-&XX&&&&&&&&X;#: $ %++% $ %  #O: $ %++",
"+>++>+$O.11111>>% %% $:O$-22-&&-&----2-o# +   %%%      #O$  %%++",
">>>+++:O#+111>1>%  %%$:O;-2-&@@@@X@@X-@=#%% $$       $$.O$  %%++",
">>+++%$O#%>111>+%    $:Oo--&X@@@@@@@&&*## % $$$$    $:$#O$$ %%++",
">>++++ O.+1111>++% $$:oOoX&&@@@@@X@@&&X=#%%        %$$:#O:  % %+",
"+%++%  #o+>  %%%% ::::o,o<@**<*X@**@XX@o#    %%%     $:O,o    %+",
"..#.#.O,,....#...#OOO#O,O#=##==========O,#.....#oo....#,,#.###..",
"#.o....oo###..#,,#;;;$$$;;;;;;=,,#..........##O,,O###.##O##..#O,",
"o+1>++>>+%%%%% #=@&&&&X&&XX&-&@=O$%%%++%%%  $$$.O:$$     %%%%+ #",
".+11>>>>>>++%  .=XX&-&X&22-222Xo# %% +++%% %   .#  %%% %+++++>%#",
".%+>++++>>++%  ##@@XXX@X------@=O$%% %%%%  %% $.O %%%%%+++++>>+.",
".%%+%<%+>++%%<$##*@@**@X&&&XXX@=# %%%%%%   %% $.O % %%+%+>>>>1>.",
".%% $$ %++%%% $#=*@@*<@@X@@@@X*=#+++%   $$  % $#O %%%%+>>>>1>>>:",
"#$% ::$ %%  $$:O#<***<*@X@**@X@=.%>%  % $:$   :#O$%%%%++%+>+%>+o",
",O##OO#.o.....#OO=====o;ooo#oo=,#..####.#.####O,,O#...######.o.,",
"O#.o:o.O,=;;;;;<;;;oo;;=,O......#.##..#,O#.....o:oo.#oO,,####O#.",
"%+>>>1>.=@XXX&&XX&&--2XoO$  $ %++++++>>.#$%+++>>>1>>>> OO      %",
"1111111#=@XX&&XX&-2222-=O:$ $$%++++>11>.#$$ ++>>111111+.O$$ %% %",
"%>>>>1+O#*X&&&XX&---22&=O:$$$$ %+++%>1+#O:$ %+>>++>1>> .O:: %+%%",
"  %%+>%##*@&&-----2222&oO:$   %%++%++>+.O$  %++++>>>>1+.O:$ %%+%",
"    %>%##*@X&---222222&=Oo$$  %%+%%%++%.#   %++%%+%%+11.,:    %+",
"  %% $:#=*X@&&X----&@X@=,.::$  %% $  %%.O$   %%   $ ++%o,:$:$$ %",
".oo..#OOO;;;;;;<*<;===o,,O####.oo.##.o.,,#o.##...#OO#..#,,OOO###"
};
